<svg xmlns="http://www.w3.org/2000/svg" width="500.09769pt" height="430.6199pt" viewBox="0 0 500.09767 430.6199"><path d="M105.395 420.274c-.52-.2-.854-.708-.834-1.264l.138-3.657a3.945 3.945 0 0 1 1.544-2.998c.008-.11.018-.221.028-.335-4.117-.073-13.57-.11-13.975-.11.178.698.347 1.35.51 1.928a4.733 4.733 0 0 1 1.925 3.759l.024 2.826a1.301 1.301 0 0 1-1.036 1.286l-14.006 2.919c-2.868.648-5.779.97-8.69 1.057 7.098.21 14.652.323 22.486.323 12.25 0 23.551-.256 33.394-.717-3.249-.083-6.378-.328-8.837-.868-4.95-1.19-12.358-4.03-12.67-4.15M153.57 418.224l-.524 3.735c-.313 1.141-.791.998-2.112 1.376a75.01 75.01 0 0 1-.707.168c9.648-1.157 15.247-2.645 15.247-4.31 0-1.51-4.597-2.944-12.638-4.133.646.906.92 2.038.735 3.164M46.754 424.005a1.3 1.3 0 0 1-.888-1.17l-.182-3.676c-.058-1.243.265-2.487.986-3.793.06-.666.14-1.31.25-1.928-17.267 1.29-28.338 3.284-28.338 5.52 0 2.87 18.236 5.34 44.404 6.44a70.537 70.537 0 0 1-1.05-.104c-14.826-1.17-14.978-1.221-15.182-1.29" style="opacity:.300003"/><path fill="#fff" d="M118.38 255.985c1.846-.363 2.659-2.337 2.953-4.04-9.2 2.247-20.93 1.617-25.578 1.24.328.888.706 1.773 1.13 2.641 2.189.466 11.904 2.283 21.495.16M69.736 416.602c-2.703-7.354-7.117-9.262-9.55-9.747-1.296 1.5-3.22 4.46-3.51 9.012 4.715.417 9.755.76 13.06.735M129.838 416.396c3.153-.015 6.596-.175 10.021-.372 4.827-.278 8.653-1.214 10.264-1.664.034-1.59-1.927-6.957-7.244-6.97-9.304-.023-12.21 6.236-13.04 9.006M90.054 413.627c-.383-1.32-1.105-4.43-1.744-6.62-.558 2.734-.868 5.795-.987 7.134.906-.17 1.93-.366 2.73-.514M77.46 399.485A1.301 1.301 0 1 1 76 401.639a18.318 18.318 0 0 0-2.458-1.397c-.784.547-1.486 1.04-2.113 1.483.259.159.519.327.778.503a1.301 1.301 0 1 1-1.462 2.154 18.245 18.245 0 0 0-1.648-.993c-.59.427-1.062.773-1.436 1.05a43.16 43.16 0 0 1 2.797 1.74l9.593-5.84c-1.3-.854-2.543-1.541-3.787-1.983-.101.069-.2.138-.3.205.499.28 1 .586 1.498.924M129.517 403.991a1.3 1.3 0 0 1-.838-2.296c.092-.077 1.405-1.145 4.028-1.977l-1.106-.712c-3.263.572-5.136 1.934-5.162 1.954a1.301 1.301 0 0 1-.779.257 1.3 1.3 0 0 1-.79-2.336c.065-.049.644-.479 1.68-.984-1.923.412-3.812 1.192-4.828 1.992l7.744 5.48c2.304-1.974 4.85-2.877 6.92-3.279l-.67-.43c-3.605.64-5.353 2.021-5.376 2.04a1.308 1.308 0 0 1-.823.291M79.04 396.718c.564.284 1.12.599 1.661.937.706-2.481.35-4.568.337-4.664-.027-.168-.654-3.832-3.766-4.574-.149.45-.28.889-.394 1.318 2.115 1.355 2.821 4.042 2.161 6.983M86.703 396.58c.315-.94.313-1.608-.42-2.42-.25-.26-1.36-.35-2.55-.248.027.722.01 1.684-.157 2.763.825.062 1.983.087 3.127-.096M120.876 391.488a9.84 9.84 0 0 0 1.68 4.961c.18-.083.364-.16.548-.236-.91-3.802-.297-6.622 3.45-6.876-.018-.01-.038-.023-.058-.033-2.104-1.026-4.612.315-5.62 2.184M119.755 230.933c-1.114-1.481-2.929-1.996-4.054-1.15-1.126.846-1.135 2.733-.022 4.214 1.114 1.482 2.93 1.996 4.055 1.15 1.125-.846 1.135-2.733.021-4.214"/><path fill="#fff" d="M109.255 225.483c2.546-2.232 7.783.194 12.875 5.286 3.866 3.867 5.397 8.463 4.86 11.503.322-.593.541-2.559-.612-5.976-1.274-3.78-3.717-7.659-6.7-10.642-6.025-6.026-12.938-7.297-14.49-6.998-.624 1.964.994 7.391 3.675 11.646l-.049-.078c-.51-2.253-.33-4.064.441-4.74M40.081 259.642c-4.963.952-9.896 1.134-12.48 1.155l1.105 3.175c9.147.515 16.011-1.45 21.11-4.5a61.261 61.261 0 0 0 2.543-1.618 22.588 22.588 0 0 1-2.048-2.73c-2.615 1.68-5.634 3.635-10.23 4.517M47.163 247.113a25.562 25.562 0 0 1-.408-3.31c-10.196 1.228-18.77.072-22.973-.727l3.262 4.32c2.489.17 11.452.663 20.119-.283M140.011 421.304c4.364-.218 8.781-1.187 10.8-1.681.105-.521.216-1.123.26-1.636-1.366.406-5.896 1.639-11.458 1.958-6.685.385-14.485.716-19.326-.283-1.117-.23-2.433-.573-3.797-.964l-.23 1.412c.785.228 1.546.433 2.252.603 4.931 1.183 15.582.887 21.5.59M77.277 421.446c3.75-.615 11.713-2.348 14.912-3.053a6.743 6.743 0 0 0-.081-1.071c-3.942.688-13.9 2.82-20.52 3.307-2.486.183-7.036-.062-11.724-.43l.016 1.309c1.555.125 3.12.25 4.609.367 4.539.356 8.147.332 12.788-.43M77.389 239.542a3.355 3.355 0 1 0-6.71-.002 3.355 3.355 0 0 0 6.71.002"/><path fill="#fff" d="M70.255 255.738c-6.471 0-11.717-5.246-11.717-11.717s5.246-11.717 11.717-11.717c6.47 0 11.717 5.246 11.717 11.717 0 6.47-5.246 11.717-11.717 11.717m-19.206-13.543c0 10.548 8.58 19.129 19.129 19.129 10.547 0 19.129-8.581 19.129-19.128-1.048-25.37-37.207-25.377-38.258-.001"/><path fill="#bababa" d="M58.441 406.7c-6.725.148-8.804 4.36-9.144 8.436 2.098.231 4.685.493 7.38.731.288-4.552 2.213-7.512 3.51-9.013-1.017-.202-1.688-.156-1.746-.155M138.064 404.478c-2.022.223-5.08.996-7.57 3.483a1.301 1.301 0 0 1-1.671.143l-6.483-4.588c-1.545 2.314-4.994 7.588-6.586 10.9 3.783 1.15 7.03 1.916 11.413 1.953.683-2.565 3.325-9.628 11.952-11.248l-1.055-.643M85.785 399.294c-.892.062-2.053.022-2.804-.056.361.07 1.408 1.465.078 2.315l-11.97 7.29a1.303 1.303 0 0 1-1.434-.052c-.957-.683-3.055-2.05-5.12-3.062 2.955 1.578 6.19 4.674 7.874 10.737 3.815-.34 8.408-1.12 12.261-1.829.03-.42.565-7.592 2.014-11.589-.627-1.42-1.069-2.503-.899-3.754M73.541 400.242a20.966 20.966 0 0 0-2.859-1.097l-2.004 1.157c.89.384 1.82.853 2.75 1.423.627-.444 1.33-.936 2.113-1.483M69.095 403.389a20.365 20.365 0 0 0-3.335-1.402l-1.397.807c1.012.407 2.187 1.013 3.296 1.646.375-.279.846-.625 1.436-1.051M76.547 395.7c.841.26 1.676.608 2.492 1.018.66-2.941-.046-5.628-2.16-6.983-.63 2.378-.722 4.419-.332 5.966M77.272 388.417l-.084-.02c-.577-.11-1.426-.18-2.109-.02-.27.103-.539.234-.809.395a1.099 1.099 0 0 0-.074.079l-.003.004c1.063.106 1.958.414 2.685.88.114-.428.245-.868.394-1.318M117.697 394.603a7.837 7.837 0 0 1 .175-2.39 22.606 22.606 0 0 1-3.1-.534c-.639.876-.154 3.46 2.925 2.924M122.556 396.45a9.83 9.83 0 0 1-1.68-4.962 3.14 3.14 0 0 0-.052.1c-.643 1.451-.955 3.33.458 5.511.423-.24.845-.455 1.274-.65M125.507 395.453c.34-.857.775-1.612 1.224-2.605.567-1.236.618-3.026-.176-3.51-3.748.253-4.36 3.073-3.45 6.875.75-.305 1.534-.553 2.402-.76M75.964 398.561l.298-.206a9.81 9.81 0 0 0-1.462-.4c.385.186.773.387 1.164.606M48.329 419.135c-.007.476.006.982.024 1.41 2.093.19 6.762.579 11.527.963l-.017-1.31c-4.192-.328-8.494-.756-11.534-1.063M107.181 417.057c1.892.702 5.711 2.08 9.08 3.053l.23-1.413c-3.827-1.096-8.032-2.573-9.274-3.016a13.99 13.99 0 0 0-.036 1.376"/><path fill="#909090" d="m122.225 403.434-3.378-2.39c-.905-.72-.626-1.745.309-2.44a9.336 9.336 0 0 1-.794-1.43c-1.055.104-2.395-.032-3.183-.285-.243 1.507-.48 2.875-1.95 5.436.024.91.227 8.551.249 11.382.787.25 1.542.487 2.276.71 1.593-3.314 5.04-8.587 6.586-10.902zM108.868 412.171c.5.174 1.189.41 1.997.681a778.336 778.336 0 0 0-.137-6.479c-1.382 2.576-1.761 4.695-1.86 5.798M74.194 388.854c-.78 1.023.327 4.493.784 6.468.523.09 1.048.217 1.57.38-.391-1.549-.3-3.589.33-5.967-.727-.466-1.621-.775-2.684-.88"/><path fill="#007aff" d="M75.964 398.561a580.51 580.51 0 0 0-2.423 1.681c.808.382 1.641.842 2.458 1.397a1.299 1.299 0 0 0 1.808-.347 1.302 1.302 0 0 0-.346-1.807 20.553 20.553 0 0 0-1.497-.924M119.755 230.933c1.096 1.458 1.104 3.308.032 4.173 1.688 2.144 2.202 4.518 1.695 6.027 2.816 1.31 4.87 1.618 5.414 1.272a.592.592 0 0 0 .093-.132c.538-3.041-.993-7.637-4.859-11.503-5.092-5.092-10.329-7.52-12.875-5.286-.772.676-.95 2.488-.44 4.74.711 1.14 1.5 2.198 2.342 3.086-.102-.97.05-1.727.42-2.053.776-.684 1.955-.653 3.311-.063.095-.574.365-1.075.813-1.411 1.125-.846 2.94-.331 4.054 1.15M126.55 397.897c-1.036.505-1.615.935-1.68.984a1.3 1.3 0 0 0 .79 2.336c.271 0 .544-.084.778-.257.027-.02 1.9-1.382 5.163-1.955l-.022-.014-.083-.054a2636.415 2636.415 0 0 1-2.075-1.338c-.89-.029-1.885.087-2.87.298M39.309 256.717c-5.093.978-10.095 1.16-12.719 1.178l1.01 2.902c2.585-.021 7.519-.203 12.481-1.155 4.596-.883 7.615-2.837 10.231-4.517a22.218 22.218 0 0 1-1.352-2.45c-2.424 1.532-5.427 3.23-9.651 4.042M46.755 243.803a27.137 27.137 0 0 1-.008-2.988c-10.587 1.302-20.382-.05-25.433-1.008l2.468 3.27c4.204.798 12.777 1.954 22.973.726M83.308 391.332a11.34 11.34 0 0 1 2.089-.043l5.572-20.488-5.827 2.437-3.985 14.479c1.089 1.087 1.775 2.44 2.151 3.615M116.666 389.418c.92.162 1.718.238 2.256.272.969-1.45 2.501-2.603 4.222-3.093l6.518-23.675-5.882 1.76c-2.597 9.032-5.511 19.083-7.114 24.736M150.877 416.855c-1.712.485-5.719 1.473-10.868 1.768-6.429.304-13.424.832-19.639-.307-1.012-.2-2.297-.53-3.668-.917l-.212 1.299c1.365.39 2.681.734 3.797.964 4.841 1 12.642.668 19.327.284 5.562-.32 10.091-1.553 11.457-1.96.048-.56.015-1.012-.194-1.131M91.385 416.032c-6.611 1.149-14.702 3.046-21.974 3.173-2.635-.002-6.075-.194-9.566-.461l.018 1.455c4.689.368 9.239.613 11.725.43 6.62-.487 16.578-2.62 20.52-3.307-.098-.592-.307-1.123-.723-1.29M70.255 237.542c.349 0 .692.028 1.026.08a3.356 3.356 0 1 1 5.108 4.309 6.479 6.479 0 1 1-6.134-4.39m0 18.196c6.47 0 11.717-5.245 11.717-11.717 0-6.47-5.246-11.716-11.717-11.716s-11.717 5.246-11.717 11.716c0 6.472 5.246 11.717 11.717 11.717"/><path fill="#00327d" d="M157.35 352.706c-1.485-4.331-14.64-3.681-21.333-3.35.006.078-1.096 4.158-2.145 8.018 7.148-.825 14.484-1.135 21.166-.436 1.766-1.546 2.682-3.153 2.312-4.232M95.272 364.898c.992.063 1.992.119 2.997.169 3.73-1.158 13.175-3.93 24.402-5.998l2.497-8.696c-9.462 1.287-18.767 3.632-27.785 6.759-.01.054-2.097 7.708-2.11 7.766M84.954 364.112l.654-2.376a160.968 160.968 0 0 0-4.428 2.01c1.279.13 2.537.253 3.774.366"/><path fill="#0041a2" d="m120.927 365.145 1.745-6.076c-11.228 2.068-20.673 4.839-24.403 5.997 8.145.408 16.535.417 22.658.079M154.986 356.983l.052-.045c-6.683-.7-14.018-.39-21.167.436-.949 3.493-1.854 6.805-1.854 6.805 16.193-2.393 19.681-4.704 22.97-7.196M75.964 398.561c-.392-.22-.782-.422-1.168-.607a8.152 8.152 0 0 0-1.807-.142l-2.307 1.333c.865.261 1.844.617 2.86 1.097a580.51 580.51 0 0 1 2.422-1.68M88.665 360.439l-3.523 12.799 5.826-2.437 3.427-12.6c-2.016.745-3.93 1.496-5.73 2.238M127.943 350.027c-.975 3.528-2.504 8.883-4.163 14.654l5.883-1.759 3.687-13.39c-1.794.132-3.621.291-5.407.495M59.845 418.744c-4.133-.317-8.337-.74-11.357-1.08-.109.283-.15.852-.159 1.47 3.04.308 7.343.736 11.534 1.065zM116.702 417.399c-3.48-.985-7.507-2.342-8.993-2.874-.3 0-.435.512-.492 1.157 1.242.443 5.447 1.919 9.273 3.016z"/><path fill="#e8272f" d="M113.935 270.145c-9.22.647-17.478-5.923-21.287-18.076-.274-.864.503-1.784 1.393-1.658.186.018 18.644 2.035 29.587-1.848 1.072-.382 1.658.538 1.727 1.093 1.584 12.987-2.334 19.85-11.42 20.489m-43.759-8.821c-10.548 0-19.127-8.583-19.127-19.127 1.051-25.38 37.212-25.37 38.258 0 0 10.544-8.583 19.127-19.13 19.127m98.916 63.48c-.36-28.03-17.708-47.751-17.886-47.946-5.992-6.635-10.33-10.826-13.203-13.595-2.322-2.238-3.853-3.723-4.82-5.072-.939-1.315-1.147-3.06-1.368-4.912-.334-2.816-.707-5.992-3.63-8.613-2.76 1.284-6.662-.264-10.155-2.412-13.642-8.38-15.79-19.31-15.464-23.674-5.337 3.207-12.28 3.836-18.597 2.499-5.824-1.171-10.002-3.475-10.18-3.571-1.445-.855-.308-2.96 1.154-2.33-.368-.69-.542-1.384-.542-2.043 0-2.864 3.285-5.064 8.504-3.116 6.457 2.413 13.165 5.446 22.902 1.22 1.15-3.515.343-8.02-2.144-11.1a2.385 2.385 0 0 0-.09-.121 6.118 6.118 0 0 1-5.494.099c-2.555-1.232-10.266-6.217-21.517-6.178-19.048 4.894-33.9 22.632-38.596 44.787a72.292 72.292 0 0 0 9.056-.577 25.227 25.227 0 0 0-.278 2.669c-.117 2.286.005 5.502 1.081 8.95.3.956.672 1.932 1.136 2.908 1.098 2.33 2.703 4.678 5.016 6.85a25.49 25.49 0 0 0 2.07 1.746c.312.238.638.468.972.703-5.077 6.495-14.683 10.47-18.25 11.776a267.522 267.522 0 0 0 1.588 5.323c8.635 22.338 4.517 55.492-7.684 74.502-7.98 12.904-19.49 34.222-27.727 41.177-.004.004-.009.013-.017.017 24 6.4 40.752-16.041 58.538-28.915 19.721-14.271 63.02-25.517 88.668-23.326 6.977.594 8.556 3.185 8.556 3.332 3.775-8.661 7.286-15.364 9.33-19.834-.49-.134-.903-.538-.929-1.223"/><path fill="#e8272f" d="M193.883 240.555c-6.5-3.5-12.792-3.658-19.49-1.138-1.388 2.33-2.275 5.212-2.796 8.302-1.77 9.738-7.365 22.786-17.394 28.654 4.602 5.186 14.554 21.583 16.963 39.885 2.952-1.87 11.977-9.205 24.343-34.246a115.41 115.41 0 0 0 1.553-12.088c.565-9.558.433-21.876-3.179-29.369M70.744 404.382a1.3 1.3 0 0 0 1.808-.346 1.301 1.301 0 0 0-.346-1.808 19.337 19.337 0 0 0-.78-.503c-.93.658-1.698 1.207-2.331 1.664a18.03 18.03 0 0 1 1.649.993M128.679 401.695a1.296 1.296 0 0 0-.167 1.822 1.308 1.308 0 0 0 1.828.183c.024-.02 1.771-1.4 5.375-2.042l-3.008-1.94c-2.623.831-3.936 1.9-4.028 1.977M28.707 263.972l.856 2.456c9.988.605 17.427-1.754 24.415-6.901a23.633 23.633 0 0 1-1.618-1.674 61.545 61.545 0 0 1-2.544 1.619c-5.098 3.049-11.962 5.015-21.11 4.5M27.043 247.396l2.367 3.135c2.407.09 11.517.336 18.417-.764-.284-.906-.5-1.794-.665-2.654-8.667.946-17.629.452-20.119.283M140.011 421.304c-5.917.296-16.568.592-21.499-.591a50.863 50.863 0 0 1-2.252-.603l-.176 1.079c.936.279 1.821.522 2.59.702 5.015 1.203 16.427.79 21.101.557 4.438-.222 8.996-1.26 10.813-1.712.03-.203.123-.622.222-1.113-2.018.494-6.435 1.463-10.799 1.68M77.277 421.446c-4.641.76-8.25.785-12.788.429-1.49-.117-3.054-.242-4.61-.367l.014 1.013 6.14.484c7.482.908 18.588-2.155 26.11-3.627 0 0 .049-.431.046-.985-3.2.705-11.162 2.438-14.912 3.053"/><path fill="#ad160c" d="M82.907 210.02c-6.427-2.403-9.919 1.49-7.965 5.158.038.016.076.034.114.054.157.087 15.882 8.621 27.7.12 1.491-.962 2.498-2.423 3.052-4.115-9.738 4.227-16.443 1.196-22.9-1.218"/><path fill="#ee6167" d="M98.08 200.116a6.12 6.12 0 0 0 5.492-.1c-3.486-4.503-9.964-7.402-17.704-7.403-3.19.101-6.299.553-9.305 1.326 11.253-.038 18.963 4.944 21.517 6.177M193.883 240.555c-1.69-3.506-4.142-5.955-7.64-6.572-5.784-.835-9.522 1.522-11.85 5.434 6.698-2.52 12.99-2.362 19.49 1.138"/><path fill="#ad160c" d="M171.166 316.258c.369 2.804.561 5.654.53 8.513-.013 1.033-.932 1.458-1.675 1.256-2.045 4.47-5.553 11.178-9.331 19.838.046-.079-1.482-2.734-8.552-3.338-25.648-2.189-68.951 9.056-88.671 23.33-17.783 12.871-34.537 35.314-58.535 28.915-5.211 6.342-1.034 9.871 7.522 10.214 13.611.623 25.119-5.42 35.197-18.463 10.336-13.376 21.19-19.234 22.102-19.712 1.11-.676 22.501-13.518 50.567-18.326 13.717-2.485 37.294-3.639 39.492 3.376.857 2.731-1.022 5.943-5.221 8.657-2.061 1.331-8.455 4.613-23.317 6.36l-.584 2.12c22.69-1.913 30.818-7.476 36.552-22.138 1.811-4.108 3.684-8.358 5.88-11.475 10.908-15.704 18.951-34.474 22.387-53.372-12.366 25.04-21.391 32.374-24.343 34.245"/><path fill="#ad160c" d="M74.145 367.307c2.104.321 5.249.724 9.628 1.097l.48-1.743a387.267 387.267 0 0 1-7.438-.764c-.938.481-1.773.922-2.67 1.41M94.576 367.459l-.44 1.616c10.065.624 17.899.624 25.544.412l.494-1.72c-7.795.362-16.346.259-25.598-.308M71.427 401.725a21.568 21.568 0 0 0-2.75-1.422l-2.917 1.684c1.014.326 2.162.777 3.335 1.402.632-.457 1.401-1.006 2.332-1.664M36.229 253.219c-.016.455-.03.914-.038 1.377 2.222-.295 4.82-.823 6.752-1.658-2.322.175-4.641.254-6.714.28M56.049 261.271c-5.495 3.979-11.282 6.857-18.521 7.565a86.386 86.386 0 0 0 1.244 4.917c3.563-1.307 13.172-5.285 18.247-11.781-.333-.23-.657-.464-.97-.701M48.41 421.586c.832.08 6.426.532 11.483.934l-.013-1.012c-4.765-.384-9.434-.772-11.527-.963.025.596.058 1.04.058 1.04M107.199 418.172c1.649.622 5.58 2.036 8.886 3.018l.175-1.08c-3.368-.973-7.187-2.35-9.078-3.052.007.492.024.917.017 1.114"/><path fill="#ff82b2" d="m112.745 262.827.571.432c1.345 1.074-.182 3.077-1.57 2.076l-2.496-1.888c-3.32-1.095-5.825-.907-7.332-.563 3.171 3.064 7.192 5.012 11.821 4.663 2.84-.213 4.953-1.11 6.447-2.74-2.438-2.226-5.069-2.43-7.44-1.98"/><path fill="#52132f" d="M109.86 260.907c4.753-1.558 8.625-1.003 11.772 1.7.876-1.875 1.336-4.322 1.387-7.378-.83 1.681-2.326 2.911-4.077 3.298-6.386 1.52-14.993 1.238-20.37.27.44.674.911 1.327 1.411 1.953 1.6-.582 5.071-1.373 9.877.157"/><path d="M36.19 254.596c.01-.462.023-.921.039-1.377 2.073-.027 4.392-.106 6.714-.281-1.932.835-4.53 1.364-6.752 1.658m160.87 15.328c-1.685 22.836-10.702 46.406-23.938 65.462-2.197 3.117-4.07 7.366-5.881 11.475-5.733 14.66-13.861 20.225-36.552 22.138l.584-2.12c14.862-1.747 21.256-5.03 23.318-6.361 4.198-2.713 6.077-5.925 5.22-8.656-2.198-7.015-25.775-5.861-39.492-3.377-28.065 4.808-49.457 17.65-50.566 18.327-.913.477-11.766 6.336-22.103 19.712-10.078 13.042-21.585 19.085-35.196 18.463-8.565-.344-12.743-3.88-7.507-10.234 8.236-6.957 19.748-28.271 27.727-41.175 12.202-19.01 16.317-52.166 7.685-74.505-1.048-3.418-2.065-6.735-2.832-10.237 7.239-.708 13.026-3.586 18.52-7.564a25.889 25.889 0 0 1-2.07-1.745c-6.988 5.147-14.426 7.506-24.415 6.9-.88-2.522-2.094-6.008-2.973-8.531 2.624-.02 7.626-.201 12.719-1.18 4.225-.81 7.228-2.51 9.652-4.04a22.55 22.55 0 0 1-1.133-2.91c-6.9 1.102-16.011.856-18.418.766l-8.096-10.724c5.05.958 14.846 2.31 25.433 1.008.06-1.152.183-2.07.275-2.667a71.1 71.1 0 0 1-9.052.575c5.433-25.648 24.485-45.375 47.899-46.11 7.809 0 14.334 2.952 17.797 7.524 3.682 4.563 3.68 12.255-.91 15.215-11.817 8.5-27.542-.033-27.7-.121-1.512-.794-2.748 1.399-1.264 2.276.175.098 4.356 2.398 10.18 3.572 6.318 1.334 13.26.706 18.594-2.5-.324 4.364 1.822 15.295 15.464 23.676 3.497 2.148 7.397 3.693 10.153 2.41 2.924 2.62 3.3 5.796 3.636 8.614.22 1.85.427 3.597 1.364 4.909.966 1.353 2.5 2.834 4.823 5.075 2.869 2.769 7.21 6.96 13.203 13.592.176.196 17.524 19.918 17.883 47.949.07 1.722 2.584 1.678 2.604-.033.237-21.527-12.185-42.42-17.493-48.398 10.029-5.87 15.624-18.917 17.394-28.655 1.396-8.276 5.418-15.068 14.646-13.735 10.976 1.934 11.649 21.91 10.819 35.94m-61.045 79.432c6.695-.331 19.848-.98 21.333 3.35.374 1.09-.564 2.718-2.363 4.277-3.288 2.493-6.776 4.803-22.97 7.197 0 0 4.012-14.676 4-14.824m-12.872 37.24c-1.722.492-3.254 1.644-4.222 3.095a21.084 21.084 0 0 1-2.257-.272c2.627-9.265 8.776-30.34 11.277-39.391 1.786-.204 3.613-.363 5.407-.496l-10.205 37.065m3.35 2.708c.857.43.818 2.278.237 3.543-.45.994-.884 1.749-1.224 2.605-1.59.379-2.9.895-4.226 1.647-1.413-2.181-1.1-4.06-.458-5.512.97-1.92 3.53-3.328 5.672-2.283m2.926 8.295 6.963 4.49c-2.07.402-4.615 1.306-6.92 3.279l-7.743-5.48c1.537-1.21 5.073-2.374 7.7-2.29m9.698 7.522c-8.627 1.62-11.27 8.683-11.952 11.248-5.233-.044-8.85-1.126-13.69-2.662-.022-2.83-.224-10.473-.25-11.381 1.47-2.561 1.709-3.93 1.95-5.437.789.253 2.13.39 3.184.285.215.486.48.964.794 1.43-.935.695-1.214 1.72-.308 2.44l9.975 7.06a1.302 1.302 0 0 0 1.673-.143c2.488-2.487 5.546-3.26 7.568-3.483.348.21.699.426 1.056.643m3.759 2.27c5.317.013 7.279 5.38 7.244 6.969-1.611.45-5.436 1.387-10.263 1.664-3.425.197-6.87.358-10.021.373.83-2.77 3.737-9.03 13.04-9.006m7.998 9.464c.58.332-.196 3.226-.288 3.88-1.817.454-6.376 1.492-10.813 1.713-4.674.234-16.086.647-21.102-.557-3.483-.818-9.36-2.921-11.475-3.72.024-.636-.217-3.646.51-3.646 2.072.742 9.079 3.086 12.662 3.79 6.214 1.14 13.209.612 19.638.309 5.15-.296 9.156-1.283 10.868-1.77m-40.15-10.48c.054 2.183.113 4.77.138 6.479-.808-.271-1.496-.507-1.997-.682.1-1.103.478-3.222 1.86-5.797m4.045-14.695a22.91 22.91 0 0 0 3.1.535 7.795 7.795 0 0 0-.175 2.389c-3.08.537-3.564-2.048-2.925-2.924m-19.5-26.781c.014-.058 2.1-7.711 2.11-7.766 9.019-3.126 18.323-5.472 27.786-6.76l-4.242 14.774c-6.878.379-16.617.32-25.654-.248m-1.136 4.177.439-1.616c9.253.568 17.803.67 25.598.309l-.494 1.719c-7.645.213-15.48.213-25.543-.412m-8.74 22.214a11.34 11.34 0 0 0-2.09.043c-.374-1.175-1.061-2.528-2.15-3.615l7.509-27.278c1.8-.741 3.714-1.493 5.73-2.237zm2.914 15.719c.638 2.189 1.36 5.299 1.743 6.62-.8.148-1.825.343-2.731.514.119-1.34.429-4.4.988-7.134m3.832 12.37c-7.522 1.472-18.628 4.535-26.11 3.627-5.013-.39-16.408-1.302-17.622-1.42 0 0-.232-3.118.077-3.92 5.57.626 15.168 1.537 20.923 1.54 7.272-.127 15.364-2.025 21.974-3.173 1.085.435.758 3.346.758 3.346M58.442 406.7c.197-.005 7.464-.52 11.295 9.902-5.194.039-14.668-.83-20.44-1.466.34-4.077 2.42-8.287 9.145-8.436m14.547-8.887c2.398-.085 4.635.932 7.06 2.525l-9.592 5.842c-1.516-1.037-4.115-2.59-6.093-3.386l8.625-4.981m10.744-3.9c1.19-.103 2.3-.014 2.55.248.735.812.736 1.48.42 2.419-1.143.183-2.301.157-3.125.095.165-1.078.183-2.04.155-2.762m-.752 5.325c.752.078 1.913.119 2.804.057-.17 1.25.273 2.333.899 3.754-1.448 3.996-1.984 11.168-2.014 11.588-3.853.709-8.445 1.488-12.261 1.83-1.684-6.064-4.92-9.16-7.874-10.737 2.065 1.01 4.163 2.379 5.12 3.06.425.305.989.324 1.434.054l11.97-7.29c1.33-.85.283-2.247-.078-2.316m-8.785-10.387c.59-.696 2.11-.622 2.993-.453 3.184.695 3.822 4.424 3.849 4.594.014.096.369 2.183-.336 4.663-1.811-1.13-3.773-2-5.724-2.333-.457-1.977-1.565-5.453-.782-6.471m6.984-25.104a159.695 159.695 0 0 1 4.429-2.011l-.654 2.376a369.497 369.497 0 0 1-3.775-.365m-7.035 3.56c.898-.488 1.732-.928 2.67-1.41 2.52.284 5 .538 7.438.764l-.48 1.744c-4.378-.374-7.524-.776-9.628-1.098m45.534-141.652c2.983 2.983 5.426 6.862 6.7 10.642 1.262 3.742.88 5.743.517 6.108-.544.346-2.597.038-5.413-1.272.507-1.51-.008-3.882-1.696-6.027l-.053.042c-1.125.846-2.94.33-4.054-1.15-.671-.893-.934-1.933-.791-2.804-1.356-.59-2.535-.621-3.311.064-.37.326-.522 1.083-.42 2.053-3.98-4.196-6.757-12.18-5.97-14.654 1.553-.3 8.466.972 14.49 6.998m66.886 5.745c-9.51-1.18-15.401 4.156-17.528 15.854-2.505 13.775-9.976 23.373-16.572 27.11-5.706-6.271-9.863-10.284-12.65-12.973-2.22-2.141-3.685-3.556-4.512-4.715-.55-.768-.711-2.128-.897-3.703-.362-3.038-.852-7.168-4.761-10.486.424-1.72.16-4.183-.798-7.022-2.877-9.365-13.316-19.032-22.936-19.407 1.363-1.465 3.038-4.083 3.038-8.107 0-10.228-9.922-17.94-23.08-17.94-24.905 1.062-44.475 20.585-50.551 48.676-9.531-.29-16.716-2.127-16.828-2.157-1.163-.33-2.117 1.095-1.37 2.044l10.584 14.017c.232.307.589.496.974.516.212.01 2.158.105 4.947.12a102.11 102.11 0 0 0-.043 1.684c-4.847.487-8.732.368-8.785.366-.886-.058-1.587.902-1.273 1.73l3.865 11.092a1.3 1.3 0 0 0 1.133.87c2.169.159 4.259.193 6.387.083.798 3.722 1.865 7.204 2.963 10.784 8.43 21.822 4.334 53.81-7.407 72.365-6.98 11.23-19.121 33.265-25.523 38.88-9.481 8.686-4.745 16.828 9.326 16.55 13.515 0 25.432-6.557 35.445-19.515 9.087-11.76 18.797-17.618 20.875-18.792 1.304.283 5.116 1.007 12.479 1.648l-4.19 15.223c-1.948-.872-5.573-.68-6.72 1.038-1.546 1.92-.602 5.142.134 8.054-.138.029-11.891 6.79-11.891 6.79-.381.22-.617.613-.647 1.037-.853.49-1.512.858-1.877 1.044-8.99 2.008-10.726 5.89-11.205 11.208-.72 1.307-1.043 2.55-.986 3.793l.182 3.676a1.3 1.3 0 0 0 .889 1.17c.204.068.356.119 15.18 1.289 5.865.62 11.91.66 17.779-.666l14.006-2.92a1.303 1.303 0 0 0 1.036-1.285l-.024-2.826a4.731 4.731 0 0 0-1.925-3.758c-.877-3.115-1.954-8.4-3.494-11.295-.836-1.938-1.332-2.486-.536-4.101.707-1.484 1.487-4.313-.903-6.342l5.56-20.444c6.44.323 16.695.548 25.495.449l-4.828 16.812c-.395-.24-3.931 2.452-1.273 6.298-.57 2.96-.247 3.489-3.22 7.982-2.696 4.103-3.202 7.053-3.364 9.157a3.946 3.946 0 0 0-1.544 2.998l-.138 3.657a1.3 1.3 0 0 0 .834 1.264c.313.12 7.72 2.96 12.67 4.149 5.958 1.31 15.857.882 21.84.625 4.487-.224 8.963-1.206 11.028-1.713 1.322-.377 1.799-.234 2.112-1.375l.525-3.735a4.258 4.258 0 0 0-.844-3.312c.217-3.017-1.39-8.201-9.035-10.04-.706-.436-1.401-.863-2.082-1.28a1.302 1.302 0 0 0-.51-1.56l-10.59-6.83c-.567-.353-1.307-.17-1.931-.181 2.292-3.952 1.24-8.125-2.684-8.607l4.053-14.72c21.497-1.367 33.638-7.224 39.676-23.784 1.76-3.993 3.58-8.121 5.626-11.027 13.834-19.635 22.959-44.603 24.41-66.79 1.529-23.368-3.245-37.471-13.096-38.694"/><path d="M70.177 261.324c-10.548 0-19.128-8.581-19.128-19.128 1.05-25.377 37.21-25.37 38.257 0 0 10.547-8.58 19.128-19.129 19.128m0-40.86c-11.983 0-21.732 9.748-21.732 21.732 1.194 28.83 42.275 28.822 43.464 0 0-11.984-9.749-21.732-21.732-21.732"/><path d="M70.678 239.542c0-.714.223-1.375.603-1.919a6.48 6.48 0 1 0 5.108 4.308 3.355 3.355 0 0 1-5.711-2.389M121.632 262.606c-3.148-2.702-7.019-3.257-11.772-1.699-4.806-1.53-8.278-.739-9.878-.157a25.51 25.51 0 0 1-1.412-1.953c5.38.968 13.986 1.25 20.372-.27 1.751-.387 3.247-1.617 4.077-3.298-.052 3.056-.512 5.503-1.387 7.377m-7.893 4.941c-4.629.348-8.65-1.6-11.82-4.664 1.506-.344 4.012-.53 7.33.563l2.495 1.89c1.39 1.001 2.916-1.003 1.572-2.076l-.57-.433c2.371-.45 5.001-.247 7.44 1.98-1.494 1.63-3.607 2.526-6.447 2.74m-17.985-14.363c4.648.378 16.38 1.008 25.58-1.239-.296 1.703-1.109 3.678-2.955 4.04-9.59 2.124-19.306.307-21.495-.159a28.532 28.532 0 0 1-1.13-2.642m29.601-3.527c-.068-.559-.657-1.477-1.727-1.097-10.94 3.887-29.403 1.87-29.588 1.85-.887-.124-1.664.796-1.394 1.657 3.812 12.156 12.07 18.722 21.288 18.076 9.087-.637 13.006-7.502 11.421-20.486"/><path fill="#fff" d="M124.544 275c-23.363 1.567-29.415 29.66-10.119 46.97 20.129 18.055 47.202 9.265 45.263-14.696-1.501-18.545-20.124-32.577-35.144-32.274"/><path fill="#d7c378" d="M134.86 300.683c-12.289-2.091-17.74-14.717-10.742-19.208 7.487-4.806 21.653 4.683 20.211 13.538-.573 3.513-3.292 4.721-4.315 5.176 1.105-1.029 2.491-2.804 1.762-6.324-.326.944-.906 1.527-1.88 1.89.901-1.823 1.035-6.064-4.904-9.069-2.082-1.054-4.736-2.85-5.548-5.421-1.16 1.335-3.282 5.156 2.054 11.79-1.93-.648-3.386-1.738-4.448-3.334-.27 4.432 2.796 8.735 7.81 10.962"/><path fill="#d7c378" d="M137.226 297.065a.958.958 0 0 0-.713.385c-.126-.074-.463-.27-.887-.247-.435.024-.788.32-1.217.363 1.333 1.627 3.836 1.692 4.095-.354-.435.033-.842-.184-1.278-.147"/><path d="M121.187 308.65c-.292.436-.798.65-1.104 1.07l-.538-2.158c.903-.182 1.117-.225 1.418-.027.275.183.513.685.224 1.115m-1.329-1.8c-.379.075-.757.151-1.135.23l1.066 4.295c.2-.042.466-.097.665-.14-.122-.497-.204-.826.189-1.249.409-.44 1.033-.667 1.274-1.275.227-.574.029-2.274-2.059-1.86M124.7 308.244c-.29-1.166-.29-1.166-.15-1.431.18-.342.663-.457 1.034-.245.328.186.328.186.748 1.889-.44-.333-1.065-.414-1.631-.213m.184-2.415c-.647.132-1.042.554-1.085 1.159-.013.204-.013.204.765 3.428l.637-.121-.344-1.415c1.469-.468 1.747.696 1.852 1.135l.628-.114c-.77-3.125-.77-3.125-.933-3.398a1.453 1.453 0 0 0-1.52-.674M130.663 306.99c-.27.378-.723.568-.99.949l-.534-2.12c.857-.136 1.035-.164 1.317.054.353.27.448.783.207 1.118m.27.558c1.046-.928.296-2.377-.928-2.446a3.208 3.208 0 0 0-.658.048c-.329.052-.657.107-.986.16l1.055 4.226.618-.105c-.439-1.834 1.025-1.235 1.041-1.225.346.208.412.494.522.967.184-.03.428-.07.612-.098-.125-.535-.314-1.343-1.276-1.527M133.606 304.53l-.588.08.153.584c.166-.077.324-.127.563-.179zM133.266 305.56l.796 3.23.587-.087-.82-3.323c-.21.042-.379.096-.563.18M138.426 307.872c.197-.335.16-.74.06-1.006-.243-.651-.664-.806-1.328-.983-.348-.093-.995-.266-.876-.864.086-.426.74-.513 1.054-.025.06.095.089.192.103.239l.55-.065c-.231-.833-.91-1.142-1.443-1.076-1.043.14-1.134 1.408-.372 1.992.502.383 1.254.21 1.685.753.223.283.23.857-.347.935-.31.04-.706-.138-.844-.63-.168.024-.392.054-.56.076.357 1.363 1.85 1.445 2.318.654M142.439 307.128c.744-1.942.744-1.942.65-2.391-.147-.7-.775-1.225-1.4-1.172-.986.1-1.11 1.462-.197 2.208.037.03.089.068.129.096l.178-.484c-.62-.53-.43-1.205.043-1.246.375-.032.796.357.757.889-.008.108-.022.289-1.03 2.789l2.327-.232-.134-.582zM146.707 306.822c-1.106.063-2.002-1.853-1.262-2.698.648-.737 1.951.21 2.051 1.49.043.543-.186 1.153-.789 1.208m-.899-3.535c-1.462.1-1.543 2.517-.125 3.695 1.159.964 2.424.26 2.294-1.275-.112-1.312-1.145-2.464-2.169-2.42M150.31 306.597c.543-1.784.543-1.784.448-2.22-.146-.673-.681-1.215-1.193-1.21-.832.026-.848 1.378-.024 2.13l.056.048.13-.447c-.53-.547-.4-1.172-.013-1.177.308-.004.67.395.655.896-.01.298-.53 1.9-.754 2.575l1.897-.06-.127-.56zM153.54 304.31l-.352-.012.329 1.305c-.293-.258-.706-.363-.92-.721-.077-.128-.077-.128-.496-1.637l-.387-.008c.61 2.204.623 2.247 1.41 2.65.532.27.576.475.744 1.236l.35.006z"/><path fill="#0078d0" d="M135.396 318.99c-.1.03-.201.05-.304.06-2.691.323-4.024-2.909-2.591-4.795 1.38-1.816 4.181-.894 4.61 1.518.217 1.218-.387 2.463-1.247 3.003.007.2.033.398.075.592 1.262-.643 2.076-2.23 1.591-4.022-.465-1.713-2.068-2.894-3.622-2.602-3.121.635-3.24 4.937-.813 6.451.809.505 1.652.584 2.391.357a4.11 4.11 0 0 1-.09-.562"/><path fill="#ffb114" d="M140.775 318.557c.135 1.475-.752 2.853-1.989 3.035-2.536.275-3.723-2.93-2.343-4.75.211-.277.452-.49.711-.64a2.848 2.848 0 0 0-.08-.611c-2.238 1.05-2.228 4.748-.169 6.129 2.114 1.418 4.563-.513 4.35-3.143a2.412 2.412 0 0 1-.48-.02M137.65 315.991c1.203-.335 2.58.444 3.008 1.943.161.038.33.06.506.062l-.007-.03c-.396-1.697-1.87-2.84-3.356-2.605a2.829 2.829 0 0 0-.253.056c.05.195.082.386.102.574"/><path d="M138.615 315.366c-.118-.85.064-1.732.606-2.348 1.39-1.583 3.885-.272 4.07 2.125.087 1.11-.372 2.09-1.127 2.565.005.196.027.393.063.587 1.039-.56 1.738-1.889 1.479-3.498-.3-1.869-1.805-3.25-3.358-3.015-1.707.272-2.436 1.931-2.26 3.55.178-.007.354.005.527.034M141.413 317.988c-1.344.11-2.289-.844-2.659-2.008a2.273 2.273 0 0 0-.562-.066c.212.852.681 1.642 1.397 2.15.731.518 1.504.622 2.183.42a4.809 4.809 0 0 1-.073-.562 1.918 1.918 0 0 1-.286.066"/><path fill="#00a651" d="M146.523 317.73c.003.037.005.074.006.112.061 1.419-.828 2.716-1.825 2.779-2.324.158-3.285-3.325-1.904-4.925a2.04 2.04 0 0 1 .499-.426 3.572 3.572 0 0 0-.073-.585c-2.106.985-1.997 4.888.011 6.15 1.861 1.173 3.858-.617 3.711-3.061a1.887 1.887 0 0 1-.425-.043M143.706 314.798c.015.096.027.19.036.284 1.097-.29 2.329.592 2.688 2.055.142.04.29.064.446.069l-.008-.04c-.337-1.671-1.648-2.847-2.985-2.677a2.704 2.704 0 0 0-.228.045c.02.087.037.175.05.264"/><path fill="#f0282d" d="M149.074 313.855c-.367-1.66-1.649-2.885-2.916-2.743-1.51.186-2.142 1.776-1.989 3.361.156.002.311.022.464.058-.093-.823.065-1.669.526-2.267 1.176-1.526 3.452-.096 3.612 2.245.097 1.405-.702 2.643-1.673 2.691-1.197.098-2.04-.892-2.354-2.077a1.84 1.84 0 0 0-.489-.094c.204.947.691 1.83 1.441 2.337 1.963 1.326 3.983-.774 3.378-3.51"/><path d="M475.833 423.56c0 3.899-37.269 7.06-83.242 7.06-45.974 0-83.243-3.161-83.243-7.06 0-3.9 37.269-7.06 83.243-7.06 45.973 0 83.242 3.16 83.242 7.06" style="opacity:.300003"/><path fill="#fff" d="M395.585 156.168c3.673 2.61 5.744 7.324 5.36 12.385-.646 8.534-7.727 14.84-15.48 14.117-5.002-.468-8.977-2.957-10.957-6.95-.026.425-.044.853-.044 1.284 0 11.49 9.426 20.839 21.011 20.839 11.585 0 21.01-9.348 21.01-20.84 0-11.453-9.366-20.775-20.9-20.835M340.776 178.744c-.603-.03-1.159-.131-1.646-.314-2.365-.889-3.466-2.985-3.457-5.617a42.236 42.236 0 0 0-3.216 7.51c-1.516 4.722-1.711 8.809-.66 10.967.317.652.743 1.135 1.286 1.398 1.569.758 3.61.217 6.064-1.608 5.564-4.136 11.204-13.24 14.391-20.76-3.014 5.673-8.892 8.615-12.762 8.424M386.574 346.281l-.061.642-.029.303-2.394 25.123c.258.09.525.198.792.306.775-1.766 1.804-3.18 3.048-4.15.834-.65 1.733-1.064 2.647-1.247l1.702-17.48-5.705-3.497M314.737 19.093a60.822 60.822 0 0 1-4.547.172c-10.09 0-18.82-2.5-27.773-5.066-3.856-1.105-7.743-2.216-11.797-3.174l21.822 80.265c15.386 2.617 30.384 7.083 45.569 8.018-6.37-21.96-16.803-57.927-23.274-80.215M392.698 397.023a40.813 40.813 0 0 1 2.253-1.015l-.02-.017c-2.108.2-5.153.88-7.706 2.989l10.286 6.397a13.904 13.904 0 0 1 4.516-3.182l-.99-.866c-1.512.613-2.617 1.29-2.636 1.3-1.723 1.07-3.358-1.54-1.631-2.616.062-.038.713-.44 1.708-.921l-.905-.792a38.348 38.348 0 0 0-3.512 1.49c-1.838.905-3.179-1.873-1.363-2.767M376.126 416.404c.015.417.038.835.059 1.198 13.019 3.697 21.818 3.9 31.63 2.953l.058-1.425c-11.171 1.187-19.816.873-31.747-2.727M418.729 190.97a26.921 26.921 0 0 1-1.672 2.424c6.979 4.686 15.4 9.317 22.76 12.78l2.256-3.816c-7.44-3.064-16.402-7.244-23.344-11.387M422.633 177.813a27.096 27.096 0 0 1-.26 3.035c6.652.91 16.05.792 22.73.46l1.3-3.69c-6.668.371-17.083.735-23.77.195"/><path fill="#fff" d="M391.55 173.035a3.004 3.004 0 0 0 4.443-2.349 3.004 3.004 0 0 0-2.713-3.27 3.003 3.003 0 0 0-1.73 5.619M346.108 171.699c.208.31.496.544.85.65.98.296 2.079-.474 2.454-1.72a2.82 2.82 0 0 0 .09-1.223c-.082-.561-.341-1.038-.736-1.33a1.47 1.47 0 0 0-.45-.236c-.98-.295-2.08.475-2.454 1.72-.224.747-.134 1.49.183 2.034.02.036.04.07.063.105M319.599 409.072c-.127-.008-.248-.008-.374-.013l-1.044.98c4.797.63 7.028 2.425 9.579 5.5l1.322-1.242c-2.844-3.226-4.802-4.938-9.483-5.225M341.509 409.49c-.754 4.381-2.808 12.303-6.667 10.09-.005-.003-.011-.005-.016-.009h-.001a1.52 1.52 0 0 1-1.496-.46c-.247-.277-.49-.552-.832-.93l-.582.561-.71.685.002.001c2.56 2.586 5.295 4.255 7.726 1.524 2.147-2.41 3.577-7.484 4.302-13.132l-1.725 1.664-.001.006"/><path fill="#bababa" d="m388.108 330.189-1.102 11.563-.432 4.529 5.705 3.496.315-3.243.019-.188.513-5.272.797-8.193.774-7.946a133.38 133.38 0 0 0-5.834-2.675zM292.457 297.17l-24.945-93.13c-1.094 1.682-2.466 3.128-3.611 4.186 13.496 50.811 25.156 89.758 25.278 90.164.557 2.13 1.483 3.054 2.168 3.227.345.09.654-.012.92-.296.552-.589.898-1.968.213-4.075a1.73 1.73 0 0 1-.023-.077M241.803 109.522a1.543 1.543 0 0 1-1.488-1.136l-26.151-95.839a1.538 1.538 0 0 1 .959-1.849c-.485-1.382-1.195-2.087-1.784-2.276-.332-.106-.614-.05-.838.165-.395.382-.664 1.326-.237 2.834.979 3.462 23.71 88.71 44.318 167.018 1.4-.26 2.768-.29 4.079-.09l-18.108-69.022a1.545 1.545 0 0 1-.75.195M394.951 396.008c.021-.01.044-.018.066-.027l-.086.01zM397.573 398.3l.905.791a22.714 22.714 0 0 1 2.164-.907l-.814-.527c-.652.112-1.447.352-2.255.643M401.036 401.33l.991.865a13.651 13.651 0 0 1 3.306-.972l-1.194-.773c-1.086.157-2.17.501-3.103.88M292.442 91.29l1.808 6.65c5.266.585 10.488 1.378 15.668 2.167 9.925 1.512 19.631 2.989 29.167 2.903l-1.074-3.702c-15.185-.935-30.183-5.401-45.569-8.018M331.066 320.731v3.112c1.646-.255 3.455-.13 5.398.355l.065-3.794.126-7.305c-2.017.066-3.876.168-5.589.296zM407.873 419.13l-.057 1.424c3.48-.336 7.179-.827 10.729-1.29.06-.488.116-.972.16-1.429-3.483.41-7.632.955-10.832 1.295M333.621 338.324c-1.152.027-3.393.196-6.2.972.063 1.476.112 2.622.215 4.718 2.654-.856 4.808-1.067 5.863-1.11a.786.786 0 0 0 .521-.228c.363-.364.165-.555.4-3.524a.782.782 0 0 0-.799-.828M333.15 334.966a.767.767 0 0 0 .55-.272 14.892 14.892 0 0 0-6.507-1.626c.032.99.067 2 .103 3.003.622-.2 1.216-.368 1.775-.502 1.822-.44 3.273-.571 4.079-.603"/><path fill="#909090" d="M262.376 202.466c.511 1.936 1.019 3.857 1.524 5.76 1.146-1.058 2.517-2.503 3.611-4.186l-1.012-3.777c-1.171.93-2.554 1.67-4.123 2.203M340.18 385.295c-2.652-4.475-4.815-7.945-5.555-17.652a2.637 2.637 0 0 1 1.107.157c.049.017.097.04.146.06-.312-3.382-.428-7.57-.25-12.854a4.535 4.535 0 0 0-1.215-.244c-.103 4.116-.105 8.762.204 12.882-.803.063-1.571.505-2.198 1.277.08 9.516.979 12.86 1.897 15.5.496 1.427.94 2.708 1.125 4.568 1.773-.458 4.272-.128 6.313 1.166-.365-2.01-.885-3.699-1.573-4.86"/><path fill="#6f6f6f" d="M338.403 328.053a249.633 249.633 0 0 0-.428 9.846c.075.078.148.161.222.241a20.228 20.228 0 0 1 2.265 2.97c.273-3.937.538-8.036.76-11.67a27.498 27.498 0 0 0-2.819-1.387"/><path fill="#747474" d="M333.273 330.385c-1.143.027-3.36.195-6.134.956l.054 1.727c1.794.03 4.114.403 6.509 1.626a.776.776 0 0 0 .198-.466l.17-3.015a.781.781 0 0 0-.797-.828M338.198 338.14c-.074-.08-.148-.163-.223-.24l-.004.185c-.137 5.845-.023 8.122-1.015 9.583 1.076.175 2.09.444 2.96.813.199-2.466.379-4.955.547-7.372a20.228 20.228 0 0 0-2.265-2.969"/><path fill="#272727" d="M333.845 350.475c-3.1 0-5.048.755-5.659 1.221.327.25 1.118.668 2.622.956 2.876-1.75 5.81-.58 6.727-.143 1.088-.273 1.694-.6 1.97-.812-.609-.466-2.557-1.222-5.66-1.222M333.273 330.385a.781.781 0 0 1 .798.828l-.171 3.015a.776.776 0 0 1-.198.466c1.43.73 2.887 1.763 4.274 3.206.06-2.534.17-5.748.428-9.847-4.03-1.686-8.423-2.16-11.32 1.487l.055 1.8c2.775-.76 4.99-.928 6.134-.955M325.312 421.457c-1.095-.056-1.95-.732-1.91-1.51.04-.778.96-1.363 2.054-1.307 1.094.056 1.95.732 1.91 1.51-.04.777-.959 1.363-2.054 1.307m-5.32-4.864c-1.096-.056-1.95-.732-1.91-1.51.04-.777.958-1.362 2.053-1.307 1.094.056 1.95.732 1.91 1.51-.04.778-.959 1.363-2.054 1.307m-2.57 4.864c-1.095-.056-1.95-.732-1.91-1.51.04-.778.96-1.363 2.053-1.307 1.095.056 1.95.732 1.91 1.51-.039.777-.959 1.363-2.053 1.307m-4.839-5.06c-1.095-.056-1.95-.732-1.91-1.509.04-.778.96-1.364 2.053-1.308 1.095.056 1.95.732 1.911 1.51-.04.778-.96 1.363-2.054 1.307m18.625 3.031a.002.002 0 0 1-.002-.002c-4.448-4.495-5.528-8.404-13.024-9.387-2.332-.306-4.682-.115-6.654.527-1.793 1.071-2.906 2.676-3.126 4.768-.13 1.248.114 2.507.621 3.63.368-.225.857-.35 1.39-.324 1.094.056 1.95.732 1.91 1.51-.033.644-.673 1.15-1.512 1.275.81.721 1.765 1.221 2.79 1.373 3.596.534 17.632 1.325 22.94-.328-.106-.045-.173-.07-.275-.118-1.913.033-3.793-1.648-5.058-2.924"/><path fill="#484848" d="M333.701 334.694a.774.774 0 0 1-.55.272c-.808.032-2.259.163-4.08.602-.559.135-1.153.303-1.775.503.04 1.109.082 2.178.125 3.225 2.806-.776 5.048-.945 6.2-.973a.782.782 0 0 1 .798.829c-.235 2.977-.037 3.161-.399 3.524a.778.778 0 0 1-.52.228c-1.056.043-3.21.253-5.864 1.109.07 1.428.146 2.886.23 4.43 1.674-.689 3.866-1.019 5.98-1.019 1.041 0 2.101.082 3.11.245 1.044-1.54.89-4.266 1.015-9.583l.004-.186c-1.386-1.443-2.843-2.475-4.274-3.206"/><path fill="#6c6c6c" d="M341.754 390.156c-2.04-1.294-4.54-1.625-6.314-1.167.058.59.091 1.236.09 1.965-.006 5.828-4.16 12.657-8.54 17.233 2.782 1.819 4.736 4.678 8.097 8.31l.52.583c.751.844.361 2.216-.782 2.492a.263.263 0 0 1 .017.009c3.854 2.209 5.91-5.69 6.667-10.091 1.076-6.233 1.222-13.95.245-19.334M336.265 422.352c.102.047.169.073.274.118a7.11 7.11 0 0 0 .816-.301c-.431.12-.734.174-1.09.183M312.726 413.58c-1.095-.055-2.014.53-2.054 1.308-.04.778.815 1.454 1.91 1.51 1.095.056 2.014-.53 2.054-1.307.04-.778-.815-1.454-1.91-1.51M317.564 418.64c-1.095-.056-2.014.53-2.054 1.307-.04.778.815 1.454 1.91 1.51 1.095.055 2.014-.53 2.054-1.307.04-.778-.815-1.454-1.91-1.51M310.412 418.64c-.533-.027-1.021.1-1.39.324a7.326 7.326 0 0 0 1.789 2.46c.839-.125 1.478-.63 1.51-1.274.04-.778-.814-1.454-1.91-1.51M325.456 418.64c-1.095-.056-2.014.53-2.054 1.307-.04.778.815 1.454 1.91 1.51 1.095.055 2.014-.53 2.054-1.307.04-.778-.815-1.454-1.91-1.51M320.135 413.776c-1.095-.056-2.014.53-2.054 1.307-.04.778.815 1.454 1.91 1.51 1.095.056 2.014-.529 2.054-1.307.04-.778-.815-1.454-1.91-1.51M334.617 367.644c-.308-4.11-.307-8.748-.204-12.882a3.506 3.506 0 0 0-1.689.318c-.249 5.705-.337 10.223-.306 13.84.628-.77 1.395-1.213 2.2-1.276M335.878 367.86c-.049-.02-.097-.043-.146-.06.049.017.097.04.146.061z"/><path fill="#c8c8c8" d="m327.779 415.522 1.303-1.224.042.046c.97 1.102 2.05 2.38 3.373 3.837l-.582.56-.71.685s-1.166-1.189-1.8-1.96c-.327-.378-1.626-1.945-1.626-1.945M311.527 410.567c1.973-.643 4.322-.833 6.655-.527h-.001l1.044-.981c-3.171-.144-5.813.383-7.698 1.508M343.33 391.473c-.06-.417-.12-.826-.19-1.218-.589-3.337-1.565-5.138-2.695-7.223-1.675-3.092-3.764-6.483-4.567-15.17-.049-.021-.098-.044-.146-.062a3.041 3.041 0 0 0-.212-.067c-.036-.009-.07-.018-.108-.026a2.597 2.597 0 0 0-.787-.064c.74 9.707 2.903 13.178 5.556 17.652.688 1.161 1.208 2.85 1.573 4.861.977 5.384.831 13.1-.246 19.334l.002-.006 1.724-1.664c.716-5.576.744-11.697.095-16.347"/><path fill="#00327d" d="m397.65 326.42-.777 8a90.051 90.051 0 0 1 5.176 3.046 143.86 143.86 0 0 0 10.357-2.38c-4.694-3.072-9.604-6.002-14.755-8.666M310.957 320.284c-.31 1.534.823 3.387 3.091 5.313 2.8-2.113 7.686-3.67 13.933-4.515v-7.408c-15.045 1.602-16.82 5.604-17.024 6.61M339.741 313.028l-.126 7.329c13.521 0 30.095 2.573 45.51 8.613l.757-7.944c-11.527-4.602-24.189-7.638-38.225-7.958a213.16 213.16 0 0 0-7.916-.04"/><path fill="#0041a2" d="M339.53 325.23a31.315 31.315 0 0 1 4.055 2.053c.489.292.774.833.74 1.401-.005.076-.232 3.864-.545 8.593 12.8 2.599 26.679 3.463 40.314 2.514l1.032-10.821c-15.415-6.042-31.99-8.613-45.511-8.614zM324.088 331.412l-.069-2.317c-.008-.33.09-.656.281-.925 1.04-1.466 2.276-2.563 3.682-3.306v-3.782c-6.248.845-11.134 2.401-13.934 4.514 2.293 1.95 5.746 3.972 10.04 5.816M396.483 338.421c1.866-.284 3.722-.602 5.566-.955a90.905 90.905 0 0 0-5.177-3.046zM395.017 395.981c-.02.01-.045.018-.066.027l2.622 2.292c.808-.29 1.603-.53 2.255-.643l-2.672-1.73a16.034 16.034 0 0 0-2.139.054M407.93 417.71v.107l-.054 1.313h.001c3.234-.344 7.241-.872 10.833-1.295.053-.537.092-1.036.102-1.435-4.127.559-7.705.995-10.879 1.31"/><path fill="#007aff" d="M392.698 397.023c-1.809.89-.491 3.68 1.363 2.767.653-.322 2.09-.976 3.512-1.49l-2.622-2.292c-1.16.482-2.057.918-2.253 1.015M422.373 180.848a26.628 26.628 0 0 1-.646 3.135c5.737.79 13.3 1.217 22.13.859l1.246-3.535c-6.672.333-16.074.45-22.73-.46M417.057 193.393a27.326 27.326 0 0 1-2.072 2.386c7.876 5.94 16.317 10.827 22.858 13.735l1.974-3.34c-7.303-3.438-15.744-8.07-22.76-12.78M385.465 182.67c7.753.724 14.834-5.583 15.48-14.117.384-5.06-1.687-9.775-5.36-12.386l-.11-.002a21.06 21.06 0 0 0-7.398 1.337c3.664 1.141 6.334 4.646 6.334 8.798 0 .477-.046.942-.114 1.4a3.002 3.002 0 1 1-2.747 5.334c-1.59 1.521-3.712 2.457-6.05 2.457-4.47 0-8.158-3.397-8.801-7.82a20.525 20.525 0 0 0-2.19 8.048c1.979 3.994 5.954 6.482 10.956 6.95M355.864 159.391a10.85 10.85 0 0 0-1.03-.106c-.075-.005-.152-.006-.229-.009.016.097.032.194.044.291.427 3.583-2.055 7.314-5.147 9.838.057.385.036.803-.09 1.224-.376 1.245-1.474 2.016-2.454 1.721a1.575 1.575 0 0 1-.85-.652c-.023-.033-.043-.069-.063-.105-3.833 1.758-7.356 1.132-6.743-4.132a34.15 34.15 0 0 0-3.629 5.352c-.009 2.632 1.092 4.727 3.457 5.617.486.183 1.043.284 1.646.313 3.87.191 9.748-2.75 12.762-8.423 1.862-4.393 2.89-8.248 2.57-10.253-.053-.328-.149-.589-.244-.676M376.124 415.112a15.41 15.41 0 0 0 0 1.292c11.87 3.582 20.54 3.916 31.746 2.726l.053-1.313v-.107c-13.795 1.369-20.042.478-31.805-2.598"/><path fill="#000091" d="M270.62 11.025c-13.863-3.275-29.696-4.736-53.085 2.16l.436 1.6 7.327 26.851.15.291c21.184 41.582 44.936 46.064 61.328 48.497 1.622.218 3.24.463 4.851.73l.815.135z"/><path fill="#006" d="M292.442 91.29c-.271-.046-.543-.09-.814-.135-1.53-.247-3.152-.478-4.851-.73-16.392-2.433-40.145-6.915-61.328-48.497-.05-.1-.101-.193-.151-.291l17.479 64.057.072-.037a.226.226 0 0 0 .022-.011c17.631-9.281 34.726-9.551 51.379-7.705z"/><path fill="#e8272f" d="M275 202.148c-.885-3.321-1.432-5.352-4.596-7.863-.06.22-.115.44-.186.656a11.438 11.438 0 0 1-1.25 2.618l18.194 67.92c.213-7.375 1.866-19.946 9.536-31.434-17.873-17.568-20.14-26.06-21.697-31.897M263.43 190.458c-1.268 1.166-3.416.893-4.796-.61-1.38-1.503-1.47-3.665-.201-4.83 1.268-1.167 3.416-.894 4.796.61 1.38 1.501 1.47 3.664.202 4.83m.616-7.35c-2.202-1.77-4.911-2.239-7.847-1.425-.41.215-1.286.21-3.521 1.535-3.357 1.99-5.52 5.627-6.426 10.812-2.957 16.9 7.808 45.76 14.488 61.46a353.398 353.398 0 0 0 6.375 14.093c1.369-12.044-8.644-57.877-10.49-66.165a1.542 1.542 0 0 1 .161-3.067c5.489-.219 9.217-2.484 10.5-6.376 1.249-3.784-.115-8.354-3.24-10.867M381.001 201.357a1.54 1.54 0 0 1-2.133.45c-.056-.037-.704-.463-1.58-1.126-1.544.769-6.47 3.049-12.638 4.148-2.215.394-4.349.59-6.39.59-6.667 0-12.354-2.09-16.715-6.174-.445.232-.904.448-1.365.63a1.543 1.543 0 0 1-1.136-2.868c2.085-.825 4.316-2.616 4.338-2.633a1.543 1.543 0 0 1 1.94 2.398c-.041.033-.434.348-1.043.78 10.217 8.764 25.449 3.144 30.423.93a18.293 18.293 0 0 1-.845-.874 1.54 1.54 0 0 1 .115-2.177c.372-.335.861-.45 1.317-.364.321.06.626.217.861.478 1.733 1.926 4.376 3.66 4.403 3.678.272.178.469.429.583.71.184.452.152.984-.135 1.424m27.309-4.122a24.071 24.071 0 0 1-12.835 3.692c-12.128 0-22.06-8.905-23.816-20.285-2.229-14.46 9.055-27.561 23.816-27.561 23.7 0 33.554 31.15 12.835 44.154m60.124 126.49c-11.224-14.437-22.831-29.366-27.192-40.05-12.708-31.125-13.615-37.326-13.076-70.947-3.709-2.842-9.763-7.143-17.38-13.424a27.34 27.34 0 0 0 1.888-1.406 27.786 27.786 0 0 0 4.383-4.504 27.34 27.34 0 0 0 1.672-2.423c6.943 4.144 15.906 8.324 23.344 11.386l2.02-3.418c-8.075-2.696-16.528-6.512-23.968-10.578a27.205 27.205 0 0 0 1.603-4.377c.276-1.023.492-2.07.646-3.136.143-.995.228-2.008.259-3.035 6.686.54 17.099.177 23.771-.196l1.192-3.382c-7.464.773-17.512 1.476-25.001 1.08a25.48 25.48 0 0 0-.38-3.11 75.22 75.22 0 0 0 2.916.115c-6.384-20.18-17.432-31.664-25.671-37.772-5.788-4.291-12.083-7.353-18.324-9.018-10.824-.6-14.94 5.433-22.063 7.776-2.73.898-5.567.036-6.826-1.524-1.556 2.15-2.539 4.696-2.861 7.57-.494 4.403.541 8.049 3.074 10.865 11.875 7.215 22.907-4.355 29.352-8.27 7.851-4.77 13.462 1.619 10.983 5.77a1.54 1.54 0 0 1 1.324 1.399c.027.34-.061.66-.227.93a1.535 1.535 0 0 1-1.186.732c-4.604.373-7.829 1.936-11.244 3.59-.798.388-1.608.777-2.441 1.159-2.056.942-4.276 1.832-6.963 2.478-4.604 1.108-9.577.819-13.871-.638.427.483.802 1.186.966 2.215.811 5.08-3.78 14.368-5.206 17.095-3.884 7.423-8.729 13.733-12.959 16.879-2.58 1.917-4.73 2.543-6.435 2.543a6.397 6.397 0 0 1-2.812-.634c-.077-.037-.145-.087-.22-.127-1.195 3.085-1.018 5.557-.828 8.15.298 4.044.607 8.226-4.349 14.027-1.24 1.452-2.795 3.089-4.595 4.985-11.57 12.182-30.934 32.57-28.392 66.03.003.026-.002.05-.001.074l2.07 7.73c.918 2.857.579 5.508-.908 7.096a4.072 4.072 0 0 1-1.921 1.162c2.22 4.684 5.214 8.68 7.521 10.842 8.454-10.848 44.076-16.932 79.287-5.39 54.739 17.945 89.719 72.385 117.61 60.247.13-9.631-15.066-29.18-28.581-46.565M378.07 400.23c4.187 4.045 5.44 10.868 5.783 13.593 3.009.642 5.84 1.08 8.979 1.28.587-2.941 1.56-5.341 2.782-7.274l-11.69-7.268a1.546 1.546 0 0 1-.345-2.327 14.908 14.908 0 0 1 2.199-2.047c-1.685-5.222-2.552-10.163-2.548-14.507a16.145 16.145 0 0 1-2.184-.267c.039 7.98-1.03 11.73-2.064 15.362-.32 1.124-.635 2.232-.911 3.456M383.39 378.6v-.003c.114-1.062.29-2.066.519-3.011-1.257-.53-4.007-1.333-4.301-.004-.28 1.253-.068 1.702.115 1.93.653.812 2.638 1.025 3.667 1.088"/><path fill="#e8272f" d="M386.517 378.287c-.542 4.101-.085 9.611 1.976 16.26a16.91 16.91 0 0 1 1.897-.76c-1.408-4.873-1.806-9.072-1.567-12.424a21.481 21.481 0 0 0-2.306-3.076M398.401 402.63c.019-.01 1.124-.689 2.635-1.3l-2.558-2.239c-.995.483-1.646.883-1.708.922-1.728 1.077-.092 3.686 1.631 2.617M373.471 92.828a69.104 69.104 0 0 0 7.203-5.62L355.616 3.917c-16.689 10.258-29.683 14.336-40.879 15.176 6.47 22.289 16.904 58.256 23.275 80.216 11.623.714 23.357-.642 35.459-6.481M377.21 412.21c1.19.311 2.32.6 3.41.867-.383-2.286-1.266-5.989-3.204-8.846-.224 2.107-.322 4.653-.206 7.978M395.971 415.222c3.411.043 7.296-.16 12.154-.646.21-5.185-1.935-8.438-3.486-10.088-4.82 1.307-7.574 6.057-8.668 10.734M376.185 417.601c0 .071.01.144.012.21.025.414.05.836.067 1.245 11.167 3.045 18.37 4.077 31.494 2.946l.01-.18.05-1.268c-9.812.947-18.612.745-31.63-2.953"/><path fill="#ad160c" d="M433.79 350.716a249.932 249.932 0 0 0 8.766 6.963c-.92-.73-1.845-1.467-2.781-2.213-1.954-1.556-3.948-3.145-5.985-4.75"/><path fill="#ad160c" d="M379.405 310.045c-35.211-11.542-70.833-5.46-79.287 5.389-2.307-2.161-5.301-6.158-7.521-10.842a3.92 3.92 0 0 1-2.009.016c-2.022-.513-3.619-2.476-4.379-5.385-.112-.368-12.68-42.35-26.83-96.026a21.88 21.88 0 0 1-2.468.236 1.486 1.486 0 0 1-.284-.015c1.845 8.289 11.858 54.12 10.489 66.165 7.814 16.332 15.931 30.214 20.234 35.436.124.15.217.322.277.507 4.385 13.583 17.375 25.023 36.684 32.37a877.37 877.37 0 0 1-.114-3.097c-11.359-4.603-17.282-10.101-16.262-15.128 1.767-8.715 22.616-10.083 39.793-9.686 41.086.938 70.408 24.298 93.969 43.069 19.894 15.85 35.608 28.37 51.279 22.726 2.057-.74 3.294-1.92 3.783-3.605a7.1 7.1 0 0 0 .256-1.884c-27.891 12.138-62.871-42.302-117.61-60.246"/><path fill="#ad160c" d="M415.782 337.345a147.86 147.86 0 0 1-19.607 4.239l-.244 2.503a161.11 161.11 0 0 0 22.355-5.01 225.248 225.248 0 0 0-2.504-1.732M343.572 340.375c-.067.97-.135 1.956-.205 2.934 12.673 2.517 26.177 3.254 40.183 2.19l.248-2.6c-3.492.234-6.999.356-10.499.356-10.137 0-20.214-.98-29.727-2.88M352.46 150.216c.34.377.704.741 1.098 1.09 4.248 3.75 11.393 5.237 17.779 3.7 3.453-.83 6.162-2.144 8.78-3.413 3.52-1.705 7.16-3.469 12.34-3.89.116-.009.228-.002.339.013 2.478-4.15-3.132-10.539-10.983-5.769-6.446 3.914-17.477 15.484-29.353 8.27M303.188 240.185a246.26 246.26 0 0 1-6.49-6.14c-7.67 11.488-9.323 24.058-9.537 31.434l3.104 11.586c1.12-15.006 6.579-27.199 12.923-36.88M390.39 393.786a18.71 18.71 0 0 1 2.75-.683c-.659-3.673-2.03-8.048-4.317-11.739-.239 3.351.16 7.55 1.567 12.422M393.003 370.663c-1.28-.824-2.432-.306-3.176.274-1.598 1.246-2.835 3.76-3.31 7.35a21.407 21.407 0 0 1 2.306 3.077c.486-6.812 3.564-10.14 5.94-8.597-.553-1.045-1.178-1.73-1.76-2.104M398.478 399.092l2.558 2.237c.932-.378 2.017-.721 3.103-.88l-3.497-2.264c-.813.292-1.557.613-2.164.907M373.471 92.828c-12.102 5.839-23.836 7.196-35.459 6.48l1.073 3.702c11.687-.106 23.119-2.56 34.386-10.182M408.125 414.576a290.32 290.32 0 0 0 9.895-1.183c-.92-5.793-5.602-9.023-10.08-9.245a10.497 10.497 0 0 0-3.3.34c1.55 1.65 3.695 4.903 3.485 10.088M428.245 208.13a132.552 132.552 0 0 1-15.571-10.232c-.608.495-1.238.963-1.888 1.405 7.617 6.281 13.67 10.583 17.38 13.425.024-1.479.05-3.01.079-4.599M427.302 187.684a111.2 111.2 0 0 1-2.232-.193c.728.374 1.503.764 2.314 1.164zM407.815 420.554l-.05 1.268-.01.18c3.144-.27 6.623-.665 10.582-1.187.068-.487.138-1.019.205-1.552-3.529.462-7.248.955-10.729 1.291"/><path fill="#ee6167" d="M367.517 124.213c-6.899.621-12.202 3.325-15.27 7.57 1.26 1.558 4.096 2.421 6.826 1.523 7.123-2.343 11.24-8.375 22.064-7.776-4.648-1.24-9.265-1.709-13.62-1.317M258.432 185.017c-1.269 1.166-1.179 3.329.201 4.83 1.381 1.504 3.53 1.777 4.797.61 1.27-1.165 1.18-3.327-.2-4.83-1.382-1.503-3.529-1.776-4.798-.61"/><path fill="#790f09" d="M394.763 372.766c-2.377-1.542-5.454 1.785-5.94 8.597 2.288 3.691 3.658 8.067 4.316 11.74a20.083 20.083 0 0 1 1.759-.218c2.526-10.756 1.507-17.023-.135-20.119"/><path d="M374.509 175.72c.177-2.88.948-5.601 2.19-8.05.643 4.425 4.333 7.822 8.8 7.822 2.339 0 4.46-.937 6.05-2.457a3.003 3.003 0 0 1 2.748-5.336c.068-.457.114-.922.114-1.399 0-4.151-2.67-7.656-6.334-8.798a21.083 21.083 0 0 1 7.398-1.337c.037 0 .074.003.11.003 11.534.059 20.9 9.382 20.9 20.836 0 11.491-9.425 20.839-21.01 20.839s-21.01-9.348-21.01-20.839c0-.432.018-.859.044-1.284m20.966-22.639c-14.661 0-26.06 13.005-23.816 27.561 1.76 11.407 11.722 20.285 23.816 20.285 4.716 0 9.116-1.358 12.836-3.692 20.713-13 10.848-44.154-12.836-44.154M380.552 199.223c-.026-.017-2.669-1.752-4.402-3.678a1.533 1.533 0 0 0-.86-.478 1.539 1.539 0 0 0-1.319.363 1.543 1.543 0 0 0-.115 2.178c.27.299.554.591.846.873-4.974 2.214-20.207 7.835-30.423-.929.61-.432 1.002-.748 1.042-.78a1.542 1.542 0 0 0-1.939-2.399c-.022.018-2.254 1.809-4.338 2.635a1.542 1.542 0 0 0 1.136 2.867c.461-.182.92-.398 1.364-.63 4.362 4.084 10.05 6.174 16.715 6.174 2.042 0 4.176-.196 6.39-.591 6.17-1.098 11.094-3.378 12.64-4.147a30.135 30.135 0 0 0 1.58 1.126 1.538 1.538 0 0 0 2.267-1.875 1.532 1.532 0 0 0-.584-.709"/><path d="m427.302 187.684.082.971c-.811-.4-1.586-.79-2.314-1.164a111.2 111.2 0 0 0 2.232.193m-81.257-16.09c-.316-.544-.408-1.287-.183-2.034.375-1.245 1.474-2.016 2.454-1.72.167.05.313.135.449.236.395.291.655.768.738 1.33 3.09-2.526 5.573-6.256 5.146-9.839a5.841 5.841 0 0 0-.044-.29c.077.002.154.003.23.007a11.2 11.2 0 0 1 1.029.107c.096.087.19.348.243.676.32 2.005-.706 5.86-2.57 10.253-3.186 7.52-8.826 16.623-14.39 20.76-2.454 1.825-4.494 2.366-6.064 1.607-.543-.263-.97-.745-1.286-1.397-1.05-2.158-.856-6.245.66-10.967a42.13 42.13 0 0 1 3.216-7.51 34.152 34.152 0 0 1 3.63-5.352c-.613 5.264 2.91 5.891 6.742 4.132m-54.7 130.024c-.684-.174-1.61-1.099-2.166-3.228-.122-.405-11.782-39.353-25.28-90.163l-1.523-5.76c1.569-.533 2.952-1.273 4.124-2.205l1.01 3.777 24.947 93.131a.978.978 0 0 0 .023.077c.684 2.106.339 3.486-.214 4.075-.265.284-.574.385-.92.296M275 202.147c1.557 5.837 3.824 14.33 21.697 31.897a244.615 244.615 0 0 0 6.49 6.14c-6.344 9.682-11.802 21.875-12.923 36.88l-3.104-11.586-18.192-67.92c.517-.8.937-1.674 1.248-2.618.072-.216.128-.436.187-.656 3.164 2.511 3.71 4.542 4.597 7.863m7.416-187.949c8.954 2.565 17.684 5.067 27.773 5.067a61.362 61.362 0 0 0 4.547-.172c11.196-.84 24.19-4.919 40.879-15.176l25.058 83.29a69 69 0 0 1-7.203 5.62c-11.266 7.622-22.698 10.078-34.386 10.183-9.535.085-19.242-1.392-29.167-2.904-5.18-.789-10.402-1.582-15.667-2.165-16.654-1.847-33.75-1.576-51.38 7.705l-.022.01-.071.037-17.48-64.057-7.326-26.85-.437-1.6c23.39-6.897 39.223-5.436 53.085-2.16 4.054.957 7.94 2.068 11.797 3.172M212.5 8.588c.224-.217.505-.272.838-.166.589.19 1.299.894 1.783 2.276a1.538 1.538 0 0 0-.958 1.848l26.15 95.84a1.543 1.543 0 0 0 2.239.941l18.108 69.021c-1.311-.2-2.68-.169-4.08.091-20.606-78.308-43.338-163.556-44.317-167.018-.427-1.508-.158-2.452.237-2.834m183.674 332.997c6.698-.986 13.289-2.407 19.607-4.239a216.28 216.28 0 0 1 2.504 1.733 161.353 161.353 0 0 1-22.354 5.01zm-58.64 10.924c-.916-.437-3.851-1.607-6.726.144-1.505-.288-2.295-.707-2.623-.956.612-.466 2.558-1.22 5.659-1.22 3.104 0 5.05.755 5.66 1.221-.275.211-.881.54-1.97.811m59.337-18.088.779-8c5.15 2.664 10.06 5.594 14.755 8.666a144.398 144.398 0 0 1-15.923 3.334zm-53.3 5.954c9.513 1.902 19.589 2.881 29.727 2.881 3.5 0 7.007-.123 10.499-.355l-.248 2.598c-14.006 1.064-27.51.327-40.183-2.19.07-.978.139-1.962.205-2.934m-15.936 3.638a585.652 585.652 0 0 1-.34-7.942 823.43 823.43 0 0 1-.103-3.003c-.018-.56-.037-1.135-.054-1.726l-.054-1.802c2.896-3.647 7.29-3.173 11.318-1.486.97.406 1.919.881 2.82 1.387-.222 3.63-.487 7.727-.76 11.67a708.509 708.509 0 0 1-.546 7.371c-.87-.369-1.885-.638-2.962-.813a19.671 19.671 0 0 0-3.11-.244c-2.113 0-4.304.33-5.98 1.02-.083-1.545-.16-3.003-.23-4.432m9.02-30.913-.125 7.304-.066 3.795c-1.943-.486-3.752-.61-5.397-.355v-10.447c1.713-.13 3.57-.23 5.588-.297m11.003-.03c14.036.32 26.697 3.354 38.225 7.956l-.757 7.944-1.032 10.821c-13.635.95-27.514.085-40.314-2.512.313-4.73.54-8.518.545-8.594a1.526 1.526 0 0 0-.74-1.4 31.378 31.378 0 0 0-4.054-2.054l.084-4.873.127-7.33c2.429-.035 5.059-.025 7.916.041m-36.7 7.215c.204-1.006 1.978-5.008 17.024-6.609V324.864c-1.405.743-2.643 1.84-3.682 3.305-.191.27-.29.595-.28.926.023.803.045 1.568.068 2.317-4.294-1.845-7.747-3.867-10.04-5.816-2.267-1.926-3.402-3.779-3.09-5.313m32.37 71.19c.65 4.65.622 10.77-.093 16.347-.725 5.647-2.155 10.722-4.302 13.131-.772.867-1.375 1.201-2.394 1.52-5.307 1.651-19.343.861-22.938.327-1.026-.152-1.981-.653-2.791-1.374a7.337 7.337 0 0 1-1.788-2.46c-.506-1.124-.751-2.383-.62-3.63.219-2.092 1.333-3.698 3.124-4.768 1.886-1.125 4.528-1.65 7.699-1.508.126.006.246.006.374.014 4.68.287 6.639 1.998 9.483 5.224l.042.047c.97 1.102 2.05 2.38 3.373 3.837.335.37.605.675.833.93a1.52 1.52 0 0 0 1.495.461c1.14-.274 1.536-1.645.78-2.492l-.517-.58c-3.362-3.635-5.315-6.494-8.1-8.312 4.383-4.576 8.536-11.406 8.542-17.233 0-.73-.031-1.376-.09-1.965-.184-1.86-.628-3.14-1.124-4.568-.918-2.64-1.816-5.984-1.897-15.5-.032-3.618.057-8.137.305-13.84a3.5 3.5 0 0 1 1.69-.32c.456.026.872.128 1.214.245-.178 5.284-.062 9.472.25 12.854v.001c.803 8.688 2.892 12.078 4.567 15.17 1.13 2.086 2.107 3.887 2.695 7.223.069.392.13.802.189 1.22m47.248-24.216c-.914.183-1.813.596-2.646 1.246-1.245.971-2.273 2.385-3.05 4.151-.266-.108-.533-.217-.791-.306l2.394-25.123.029-.304.06-.64.433-4.53 1.102-11.564.755-7.928c1.978.85 3.922 1.742 5.833 2.675l-.773 7.945-.797 8.194-.513 5.272-.02.188-.314 3.243zm-7.347 14.421c0 4.345.862 9.286 2.548 14.508a14.85 14.85 0 0 0-2.198 2.046 1.543 1.543 0 0 0 .345 2.327l11.688 7.268c-1.221 1.933-2.194 4.333-2.781 7.276-3.14-.2-5.971-.639-8.978-1.282-.343-2.725-1.597-9.548-5.783-13.59.275-1.226.59-2.333.91-3.457 1.036-3.632 2.103-7.383 2.064-15.363.653.132 1.38.22 2.185.267m11.668 11.206a19.284 19.284 0 0 0-4.508.901c-.624.207-1.26.46-1.897.761-2.061-6.649-2.518-12.159-1.976-16.26.474-3.59 1.712-6.105 3.31-7.35.743-.58 1.897-1.099 3.176-.275.582.375 1.206 1.06 1.76 2.104 1.642 3.096 2.66 9.363.135 20.12m13.227 21.69c-4.858.485-8.743.69-12.153.646 1.094-4.677 3.846-9.428 8.668-10.735a10.53 10.53 0 0 1 3.3-.339c4.479.223 9.159 3.451 10.08 9.245-3.72.501-6.982.893-9.895 1.183m-27.504-1.499a242.63 242.63 0 0 1-3.411-.868c-.116-3.325-.018-5.87.206-7.978 1.938 2.857 2.82 6.56 3.205 8.846m16.535-17.15 2.672 1.73.814.527 3.497 2.265 1.194.774a13.706 13.706 0 0 0-3.306.971 13.908 13.908 0 0 0-4.516 3.183l-10.286-6.397c2.554-2.109 5.599-2.789 7.706-2.99l.086-.009c.968-.087 1.73-.074 2.139-.055m-17.433-18.415c-.183-.228-.394-.676-.115-1.93.293-1.326 3.037-.527 4.3.004a23.36 23.36 0 0 0-.518 3.012v.002c-1.025-.062-3.027-.29-3.667-1.088m28.035 44.49c-13.124 1.132-20.327.1-31.493-2.945-.018-.409-.043-.83-.067-1.246 0-.065-.01-.138-.013-.209a55.387 55.387 0 0 1-.06-1.198 14.226 14.226 0 0 1 0-1.292c11.835 3.095 18.083 3.96 31.806 2.6 3.175-.317 6.753-.753 10.879-1.312-.01.4-.05.898-.102 1.435v.001a81.827 81.827 0 0 1-.366 2.98c-3.96.521-7.44.915-10.582 1.186m89-49.827c-.488 1.685-1.725 2.866-3.782 3.605-15.67 5.645-31.384-6.877-51.28-22.726-23.56-18.77-52.882-42.132-93.968-43.069-17.177-.396-38.025.971-39.793 9.687-1.02 5.026 4.903 10.524 16.263 15.127.037 1.07.074 2.1.114 3.097-19.31-7.347-32.3-18.786-36.685-32.37a1.521 1.521 0 0 0-.277-.507c-4.303-5.223-12.42-19.104-20.234-35.436a353.35 353.35 0 0 1-6.375-14.093c-6.68-15.699-17.445-44.56-14.488-61.46.907-5.184 3.069-8.822 6.426-10.81 3.736-2.217 7.957-2.854 11.368-.112 3.125 2.514 4.489 7.084 3.24 10.867-1.283 3.893-5.011 6.157-10.5 6.377a1.542 1.542 0 0 0-1.478 1.603 1.537 1.537 0 0 0 1.602 1.478 21.672 21.672 0 0 0 2.468-.236c14.15 53.677 26.718 95.658 26.83 96.027.76 2.908 2.357 4.871 4.379 5.384.33.083.663.125.99.125a4.08 4.08 0 0 0 2.94-1.302c1.488-1.589 1.826-4.239.908-7.097l-2.07-7.729c-.001-.025.003-.048.002-.074-2.543-33.46 16.82-53.849 28.39-66.03 1.802-1.897 3.356-3.534 4.596-4.985 4.956-5.802 4.647-9.984 4.35-14.028-.191-2.592-.368-5.065.828-8.15.074.041.142.09.219.127a6.4 6.4 0 0 0 2.812.634c1.705 0 3.855-.625 6.435-2.543 4.23-3.146 9.075-9.456 12.959-16.879 1.426-2.726 6.016-12.015 5.206-17.095-.164-1.029-.54-1.732-.966-2.215 4.294 1.457 9.268 1.746 13.87.64 2.688-.648 4.908-1.538 6.964-2.479.833-.382 1.643-.772 2.44-1.158 3.416-1.655 6.64-3.218 11.246-3.592a1.537 1.537 0 0 0 1.185-.732c.166-.269.255-.59.227-.93a1.541 1.541 0 0 0-1.323-1.399 1.529 1.529 0 0 0-.34-.013c-5.18.42-8.82 2.184-12.34 3.89-2.618 1.27-5.326 2.582-8.78 3.413-6.385 1.537-13.53.05-17.778-3.7a13.448 13.448 0 0 1-1.098-1.09c-2.533-2.815-3.568-6.462-3.074-10.864.322-2.874 1.305-5.42 2.86-7.57 3.069-4.245 8.373-6.948 15.27-7.569 4.356-.392 8.973.077 13.62 1.317 6.24 1.665 12.536 4.726 18.324 9.017 8.239 6.11 19.288 17.592 25.67 37.772a73.28 73.28 0 0 1-2.915-.115c.172.95.304 1.9.38 3.111 7.489.395 17.537-.307 25-1.08l-1.191 3.382-1.3 3.69-1.247 3.534c-8.827.358-16.391-.069-22.13-.858a27.096 27.096 0 0 1-1.602 4.377c7.437 4.064 15.89 7.881 23.969 10.578l-2.021 3.42-2.256 3.815-1.974 3.341c-6.43-2.859-14.868-7.709-22.86-13.735a27.632 27.632 0 0 1-2.31 2.12 132.528 132.528 0 0 0 15.572 10.23c-.03 1.588-.055 3.12-.08 4.598-.538 33.622.369 39.823 13.076 70.948 4.362 10.683 15.969 25.613 27.193 40.05 13.515 17.386 28.71 36.934 28.58 46.565a7.142 7.142 0 0 1-.255 1.884m-25.89-50.342c-11.096-14.273-22.57-29.032-26.772-39.323-12.846-31.464-13.42-37.015-12.796-72.73 3.902 2.03 6.38 3.027 6.612 3.12a1.545 1.545 0 0 0 1.896-.648l7.92-13.4a1.544 1.544 0 0 0-.865-2.257c-5.967-1.88-11.574-4.212-16.254-6.392l-.196-2.32c4.045.206 8.93.262 14.624-.005a1.54 1.54 0 0 0 1.382-1.028l4.9-13.903a1.543 1.543 0 0 0-1.637-2.044c-.155.018-11.336 1.335-21.316 1.433-6.581-21.552-18.334-33.789-27.07-40.265-10.697-7.932-23.111-11.917-34.056-10.929-11.787 1.061-19.803 7.907-20.92 17.867-.67 5.966 1.127 11.018 5.196 14.61 1.154 1.018 2.49 1.888 3.947 2.613-11.654-1.178-21.987 10.828-25.943 23.15-1.861 5.796-1.923 10.613-.328 13.563-2.046 4.34-1.798 7.746-1.576 10.77.276 3.735.514 6.96-3.618 11.797-1.187 1.39-2.716 3-4.486 4.864-4.105 4.322-9.512 10.018-14.573 17.228-22.87-20.973-25.331-30.149-26.96-36.25-1.03-3.864-1.862-6.936-7.172-10.592-.097-3.824-1.845-7.658-4.83-10.057a11.517 11.517 0 0 0-1.825-1.198l-18.801-71.662c21.959-11.098 43.369-7.847 64.102-4.689 25.698 3.915 49.97 7.613 74.018-14.317.438-.4.608-1.015.437-1.584L357.99 1.097a1.545 1.545 0 0 0-2.3-.86c-34.616 21.825-52.136 16.807-72.423 10.996-16.4-4.697-34.92-10-65.18-1.416-.75-2.238-2.09-3.782-3.806-4.332-1.414-.453-2.88-.123-3.922.884-1.363 1.316-1.75 3.463-1.062 5.892.978 3.458 23.718 88.737 44.328 167.056-.837.34-1.678.75-2.518 1.247-4.167 2.47-6.822 6.822-7.891 12.934-1.622 9.27-.391 27.761 14.688 63.198 9.5 22.326 21.054 42.846 26.88 50.055 4.86 14.662 18.919 26.873 39.668 34.486.149 3.331.322 6.593.544 10.55 0 .011.004.021.005.033.075 1.708 1.748 3.033 4.65 3.706-.877 20.815.448 26.055 1.784 29.896.609 1.75 1.048 3.015 1.045 5.528-.005 5.261-4.343 11.872-8.41 15.847-1.215-.394-2.611-.656-4.284-.77-12.434-.85-14.175 6.666-14.417 8.99-.53 5.058 3.108 10.105 7.784 10.8 1.498.222 5.067.7 11.4.7 6.04 0 12.258-.436 14.779-1.943 4.217-2.519 6.052-9.863 6.848-15.579.903-6.473.889-14.037-.034-19.27-.675-3.825-1.866-6.023-3.017-8.147-2.237-4.128-5.037-8.4-4.46-26.213 3.348-.942 3.98-2.56 4.026-3.544.142-1.549.294-3.42.446-5.42 9.007 1.763 18.412 2.66 28.112 2.66 3.954 0 7.959-.157 12.002-.452l-2.208 23.166c-.862-.008-1.64.141-2.314.458a3.815 3.815 0 0 0-2.135 2.68c-.157.702-.633 2.842.72 4.528.183.228.392.436.624.628.167 8.491-.894 12.243-1.926 15.86-1.074 3.766-2.181 7.658-1.888 16.338v.004c-1.776 1.39-.855 5.14-.923 7.928a1.543 1.543 0 0 0 1.129 1.523c14.873 4.131 22.69 5.081 45.584 1.995a1.544 1.544 0 0 0 1.32-1.316c.494-3.935 1.214-7.365-.06-8.665-.646-6.224-4.64-10.293-9.224-11.902l-13.448-8.712a1.539 1.539 0 0 0-.448-.188c3.286-14.579.45-22.4-3.38-24.865a5.86 5.86 0 0 0-1.023-.525l1.975-20.293c8.687-1.26 17.153-3.196 25.83-5.913 4.29 3.11 8.395 6.274 12.336 9.378a1331.55 1331.55 0 0 1 5.985 4.75l2.78 2.213c15.812 12.563 29.129 22.59 42.479 22.59 2.985 0 5.97-.502 8.987-1.587 3.01-1.084 4.928-2.984 5.7-5.65 2.975-10.26-12.484-30.146-28.852-51.2"/><path fill="#fff" d="M370.211 260.184c-2.032 13.037-11.124 24.895-23.375 29.91-21.053 8.424-40.734-6.348-39.447-28.79.99-17.17 14.645-33.286 31.96-35.515 20.192-2.4 33.96 14.724 30.862 34.395"/><path fill="#d7c378" d="M341.625 232.477c-7.377-.25-14.435 5.067-16.67 12.029-1.946 5.936.472 12.325 6.629 14.35-4.77-3.466-4.484-10.29-1.13-14.657-.247 1.834.566 3.8 2.197 4.74-1.015-6.32 3.249-12.513 8.904-15.051-1.52 2.095-1.367 4.52.208 6.532.879 1.173 2.248 2.034 2.817 3.434 1.54 3.559-.37 7.786-3.392 9.92a8.216 8.216 0 0 0 4.268-2.041c-1.305 3.31-3.945 6.087-7.185 7.557 7.07-1.216 13.409-7.152 14.225-14.412.749-6.698-4.041-12.16-10.871-12.401"/><path fill="#d7c378" d="M335.54 255.287c-.344-.394-.907-.557-1.412-.441-.392.123-.796.233-1.212.193.747 2.703 4.01 2.41 5.345.328a2.41 2.41 0 0 1-1.043-.29c-.54-.26-1.202-.127-1.678.21"/><path fill="#f0282d" d="M332.46 272.733c-2.252-.666-5.167.846-6.141 2.938-.847 1.919.55 3.217 2.47 3.059-1.296-.43-1.634-1.724-1.077-2.892.879-1.773 2.812-2.897 4.749-3.105"/><path fill="#0078d0" d="M330.897 275.217c-1.568 1.654-1.751 4.773-.693 6.739 1.14 1.989 2.96 1.415 3.807-.464-1.205 1.124-2.537.388-3.138-.94-.748-1.671-.684-3.657.024-5.335"/><path fill="#00a651" d="M332.103 277.829c.593 2.284 3.268 4.138 5.6 4.066 2.225-.136 2.488-2.098 1.366-3.692.341 1.648-.982 2.506-2.49 2.358-1.797-.186-3.453-1.257-4.476-2.732"/><path d="M327.617 263.72a2.98 2.98 0 0 1 .666-.073l.073-.574-.653-.04c-.03.228-.059.458-.086.686M316.413 264.373c-.26.443-.82.563-1.147.945.072-.753.153-1.512.242-2.262.255.027.537-.02.768.115.38.247.322.845.137 1.202m-.56-1.957-.734-.032a104.51 104.51 0 0 0-.459 4.469l.468.042c.02-.251.03-.511.125-.747.102-.262.322-.458.56-.598.274-.17.575-.312.798-.55.528-.571.667-1.831.023-2.367-.216-.181-.509-.211-.78-.217M320.286 264.508c-.04.368-.076.738-.112 1.106l-.026-.047a1.194 1.194 0 0 0-1.192-.577c.026-.253.051-.507.08-.759.018-.202.043-.41.14-.592.244-.504.878-.569 1.092-.005.108.28.046.584.018.874m-1.613-1.066c-.126.31-.146.655-.182.984-.098.908-.18 1.83-.255 2.741l.52.044c.041-.508.085-1.022.132-1.529.596-.072 1.076.29 1.15.89.04.246.004.5-.015.747l.547.046c.067-.836.146-1.686.232-2.52.074-.702.236-1.54-.343-2.083-.66-.564-1.543-.058-1.786.68M324.519 265.04c-.372.377-.944.471-1.32.854.079-.8.166-1.607.26-2.405l.588.034c.317.012.627.218.705.534.077.336.002.724-.233.982m.706.036c.263-.549.294-1.283-.1-1.777-.521-.63-1.446-.457-2.173-.537a118.625 118.625 0 0 0-.492 4.761l.587.047c.019-.198.02-.402.07-.597.08-.34.338-.67.708-.692.426-.042.74.332.784.73.033.227-.006.457-.025.684l.62.05c.025-.263.06-.528.037-.792-.04-.402-.205-.782-.53-1.039a1.205 1.205 0 0 0-.211-.129c.299-.164.573-.397.725-.709M327.168 267.898l.646.05c.122-1.287.26-2.587.416-3.87a2.72 2.72 0 0 0-.665.07 138.9 138.9 0 0 0-.397 3.75M331.357 263.262c-.79.21-1.29 1.133-.988 1.903.17.416.586.652.974.836.305.157.679.32.804.667a.749.749 0 0 1-.208.746c-.573.47-1.406.047-1.314-.71-.22-.015-.442-.031-.662-.048-.058.478.085.999.47 1.307.463.378 1.162.434 1.686.152.753-.393 1.032-1.534.437-2.18-.338-.36-.832-.496-1.232-.766-.146-.106-.29-.247-.333-.427a.706.706 0 0 1 .34-.748c.538-.277 1.103.124 1.014.725.229.017.46.032.689.047.15-1.022-.682-1.755-1.677-1.504M338.453 263.679c-1.375.009-2.148 1.684-1.148 2.678l.48-.526c-.454-.533-.174-1.351.535-1.438.383-.06.79.202.85.593.043.272-.064.547-.223.763-.248.315-.547.595-.816.893-.6.642-1.2 1.289-1.796 1.937 1.077.076 2.166.152 3.244.226l.09-.697-1.869-.131c.455-.488.915-.98 1.375-1.465.322-.336.638-.718.715-1.193.18-.89-.546-1.67-1.437-1.64M345.75 267.484c-.576 1.052-2.113 1.4-2.862.337-.797-1.104.058-2.836 1.395-2.948 1.428-.14 2.147 1.456 1.468 2.611m-3.723-1.62c-.786 1.895.812 3.833 2.823 3.192 1.63-.476 2.492-2.648 1.442-4.039-1.231-1.553-3.59-.894-4.265.847M350.558 264.632c-1.326-.008-2.147 1.605-1.182 2.59.16-.17.324-.34.485-.509a.845.845 0 0 1 .609-1.395c.353-.028.707.226.754.584.034.254-.067.51-.216.71-.25.317-.558.592-.832.887-.61.627-1.22 1.257-1.828 1.884 1.049.068 2.108.134 3.156.2l.11-.673c-.598-.038-1.203-.078-1.802-.118.458-.47.918-.947 1.377-1.418.327-.33.648-.71.724-1.184.172-.844-.512-1.579-1.355-1.558M356.193 266.45l-.272 1.571c-.293-.289-.726-.384-1.02-.672-.275-.295-.188-.73-.123-1.09l.2-1.178-.675-.059c-.07.41-.14.825-.208 1.235-.064.348-.122.714-.038 1.064.085.422.434.716.802.902.35.175.822.368.85.82.013.266-.066.528-.103.791l.63.038c.198-1.12.397-2.25.59-3.372l-.633-.05"/></svg>