<svg xmlns="http://www.w3.org/2000/svg" xml:space="preserve" id="Layer_1" x="0px" y="0px" style="enable-background:new 0 0 254.6 323.6" version="1.1" viewBox="0 0 254.6 323.6"><style>.st5{fill:url(#SVGID_00000175308991327759623830000018202241366721224612_)}.st6{fill:url(#SVGID_00000091701111530590649140000013242477492286426795_)}.st7{fill:url(#SVGID_00000056404410745330990540000004110210218518750134_)}</style><radialGradient id="SVGID_1_" cx="127.3" cy="118.4996" r="136.1007" gradientTransform="translate(0 48.2)" gradientUnits="userSpaceOnUse"><stop offset="0.075" style="stop-color:#fb5421"/><stop offset="1" style="stop-color:#fdc113"/></radialGradient><path d="M55.5 161.1c9 0 15.9 6.6 15.9 15.2s-6.9 15.2-15.9 15.2-15.9-6.6-15.9-15.2 6.9-15.2 15.9-15.2zm0 21.9c3.7 0 6.6-2.9 6.6-6.7s-2.8-6.7-6.6-6.7c-3.7 0-6.6 2.9-6.6 6.7s2.8 6.7 6.6 6.7zm17.1 7.9v-29.2h9.1v21.1h7.9v8.1h-17zm32 0h-9.4l1.9-7.1c-5.7-1.1-9.6-5.7-9.6-12.6 0-2.9.6-6.6 1.5-9.5h8.7c-.9 3.7-1.4 6.5-1.4 9.1 0 2.8 1.3 4.5 3 4.7l3.7-13.8h9l-7.4 29.2zm17.2-19.6V191h-9v-29.2h4.3c5.2 0 9.5 1.4 12.3 4.1 2.8-2.7 7.1-4.1 12.3-4.1h4.3V191h-9v-19.7c-2.2.3-3.3 1.4-3.3 3.8v8.2h-8.6v-8.2c-.1-2.3-1.2-3.6-3.3-3.8zm26.3-9.6h11c7.4 0 12.4 4.3 12.4 10.3 0 11.7-14.4 10.1-14.4 17.8v1.2h-9v-29.3zm14.2 10.8c0-1.4-1-2.5-2.8-2.5h-2.4v7.3c2.6-1.8 5.2-2.3 5.2-4.8zm10.2 18.4v-29.2h9.1v29.2h-9.1zm41.8-12.8c-.9 7.8-7.4 13.4-15.6 13.4-9 0-15.9-6.6-15.9-15.2s6.9-15.2 15.9-15.2c7.9 0 14.3 5.2 15.5 12.6h-9.3c-1-2.6-3.4-4.2-6.2-4.2-3.8 0-6.6 2.9-6.6 6.7s2.8 6.7 6.6 6.7c3.1 0 5.7-2 6.4-4.9l9.2.1zM14.7 204.3v21.6h-9v-21.6c-1.9.1-3.8.4-5.7.8v-8c2.7-.6 6.6-.9 10.2-.9s7.5.4 10.2.9v8.1c-2.3-.5-4-.7-5.7-.9zm20.8-8.2c9 0 15.9 6.6 15.9 15.2s-6.9 15.2-15.9 15.2-15.9-6.6-15.9-15.2 6.9-15.2 15.9-15.2zm0 21.9c3.7 0 6.6-2.9 6.6-6.7s-2.8-6.7-6.6-6.7c-3.7 0-6.6 2.9-6.6 6.7s2.8 6.7 6.6 6.7zm17.1-21.3h10.3c7.8 0 12.8 3.8 12.8 9.6 0 4.1-2 6.5-4.5 8.2 3.7 1.7 5.8 5 5.8 9.5v2h-9.4v-2.7c0-1.9-1.2-3.1-3-3.1s-3 1.2-3 3.1v2.7h-9v-29.3zm9 16.2c2.2-2.1 5-2.5 5-5.3 0-1.6-1.2-2.7-3.4-2.7h-1.6v8zm46.1.2c-.9 7.8-7.4 13.4-15.6 13.4-9 0-15.9-6.6-15.9-15.2s6.9-15.2 15.9-15.2c7.9 0 14.3 5.2 15.5 12.6h-9.3c-1-2.6-3.4-4.2-6.2-4.2-3.8 0-6.6 2.9-6.6 6.7s2.8 6.7 6.6 6.7c3.1 0 5.7-2 6.4-4.9h9.2v.1zm10.4 12.8H109v-29.2h9.1v13.2c1.4-.9 3.1-1.5 5.1-1.7v-11.5h9.1v29.2h-9.1V217c-3.1 0-5.1 2-5.1 5.3v3.6zm24.2-29.2h10.3c7.8 0 12.8 3.8 12.8 9.6 0 4.1-2 6.5-4.5 8.2 3.7 1.7 5.8 5 5.8 9.5v2h-9.4v-2.7c0-1.9-1.2-3.1-3-3.1s-3 1.2-3 3.1v2.7h-9v-29.3zm9 16.2c2.2-2.1 5-2.5 5-5.3 0-1.6-1.2-2.7-3.4-2.7h-1.6v8zm34.7 13h-18.1v-29.2H186v7.8h-9.5v5.4c1.9-1.6 4.4-2.4 7.4-2.4h.9v7.6h-1.3c-3.1 0-5.4 1.1-6.5 3.1h9v7.7zm1.7 0v-29.2h9.1v21.1h7.9v8.1h-17zm27.1 0h-8.9v-18.3c0-7 4.6-11.5 11.6-11.5s11.6 4.5 11.6 11.5v18.3h-8.9v-.5c0-3.3-2.1-5.3-5.4-5.3v5.8zm5.4-12.2v-6c0-1.7-1.1-2.8-2.7-2.8s-2.7 1.1-2.7 2.8v4.6c2.1-.1 3.9.4 5.4 1.4zm27 12.2h-9.4l1.9-7.1c-5.7-1.1-9.6-5.7-9.6-12.6 0-2.9.6-6.6 1.5-9.5h8.7c-.9 3.7-1.4 6.5-1.4 9.1 0 2.8 1.3 4.5 3 4.7l3.7-13.8h9l-7.4 29.2z" style="fill:url(#SVGID_1_)"/><path d="M43.1 251.1c-.7 1-1.9 1.6-2.9 2.2-1.2.6-2.4 1.2-3.4 2.1V246h2.7c1.5 0 3.2.5 3.9 2.1.3.8.3 2.1-.3 3m.1-7.1c-1.4-.7-2.9-.7-4.4-.7h-5V262h2.9c0-1.1-.1-2.2.4-3.1.7-1.6 2.4-2.4 3.9-3.1 1.6-.8 3.4-1.5 4.4-3 .9-1.3 1.2-3.1.9-4.7-.2-1.9-1.4-3.4-3.1-4.1M64.5 254.9c-1.7-1.7-4.3-2.3-6.7-2v-3c0-.6 0-1.1.1-1.7.3-1 1.1-1.9 2.1-2.3 1.1-.4 2.3-.2 3.3.5s1.3 1.7 1.4 2.9V255.1c0-.1-.1-.2-.2-.2m.1-11.2c-2.5-1.4-6.1-1-8.1 1.2-1 1.1-1.4 2.4-1.5 3.9v13.1h2.9v-6.2c1.7-.2 3.6-.1 5 1 1.3.9 1.8 2.4 1.8 3.9v1.3h2.9v-12.5c0-2.3-1-4.5-3-5.7M83 245.9c1.9 0 3.7.9 3.9 2.9.1 1-.1 1.9-.8 2.7-.7.8-1.8 1.3-2.7 1.8-1.2.6-2.3 1.1-3.3 2v-9.4H83zm4.4 9c-.3-.2-.7-.3-1.1-.4.9-.5 1.8-1.1 2.5-2 .6-.8.9-1.7 1-2.7.2-2.1-.4-4-2.1-5.3-2.2-1.7-5.1-1.4-7.7-1.4h-2.7v18.7h2.9v-1.7c.1-1.2.6-2.4 1.7-3.1 1-.7 2.5-.7 3.6-.2s1.9 1.6 2.1 2.8c.1.7.1 1.4.1 2.2h2.9c0-1 .1-2.1-.2-3.1-.5-1.5-1.5-2.9-3-3.8M99.5 245.8c1-.3 1.9-.4 2.9-.4v-2.2h-2.9v2.6zM99.5 247.5v14.4h2.9V247c-1 .1-1.9.2-2.9.5M121.8 252.9c-1-.8-2.3-1.3-3.5-1.7-1.1-.4-2.5-.9-3.3-1.8-.8-.9-.6-2.2.2-3 .8-.8 2.1-1 3.2-.7 1.2.4 1.9 1.5 1.9 2.7h2.9c0-1.4-.4-2.7-1.4-3.7-.9-1-2.2-1.6-3.5-1.7-1.4-.2-2.8 0-4 .7-1.1.7-2.1 1.7-2.5 2.9s-.3 2.7.3 3.8c.7 1.2 1.9 2 3.2 2.5 1.4.6 3 1 4.2 1.8.5.4.9.8 1.1 1.4.1.6.1 1.3-.2 1.8-.7 1.3-2.3 1.7-3.7 1.5-1.5-.3-2.6-1.6-2.6-3.1h-2.8c0 1.5.5 3 1.6 4 1.1 1.1 2.6 1.7 4.1 1.8 1.6.1 3.2-.2 4.5-1.1 1.2-.9 2-2.2 2.2-3.6.1-1.7-.5-3.4-1.9-4.5M148.9 253.3c.6-.8 1.3-1.6 1.7-2.6.4-.9.6-1.9.4-3-.2-1.9-1.6-3.5-3.3-4.3-1.8-.8-4-.8-5.7.1-1.8.9-3 2.6-3.1 4.6s.8 3.8 2.4 5l1.6-2.1c-.6-.6-1-1.2-1.2-2.1-.1-.8 0-1.6.5-2.2.9-1.3 2.8-1.6 4.2-1 .7.4 1.3 1 1.5 1.7.3.8.1 1.7-.2 2.4s-.9 1.4-1.4 2c-1.9 2.4-3.9 4.9-5.8 7.3-.7.9-1.4 1.7-2.1 2.6h13.1V259h-7.6l5-5.7zM175.6 255.2c-1.1 2.7-3.8 4.4-6.7 4.2-2.8-.2-5.3-2.2-6.1-4.9s.1-5.8 2.4-7.6c2.3-1.7 5.5-1.8 7.9-.2 2.7 2 3.7 5.6 2.5 8.5m.6-9.5c-2.9-2.8-7.4-3.6-11.1-1.9-3.7 1.7-5.9 5.6-5.6 9.7.4 4 3.3 7.4 7.2 8.4s8.2-.5 10.6-3.8c2.4-3.3 2.3-8-.2-11.3-.2-.4-.5-.8-.9-1.1M197.6 253.3c.6-.8 1.3-1.6 1.7-2.6.4-.9.6-1.9.4-3-.2-1.9-1.6-3.5-3.3-4.3-1.8-.8-4-.8-5.7.1-1.8.9-3 2.6-3.1 4.6s.8 3.8 2.4 5l1.6-2.1c-.6-.6-1-1.2-1.2-2.1-.1-.8 0-1.6.5-2.2.9-1.3 2.8-1.6 4.2-1 .7.4 1.3 1 1.5 1.7.3.8.1 1.7-.2 2.4s-.9 1.4-1.4 2c-1.9 2.4-3.9 4.9-5.8 7.3-.7.9-1.4 1.7-2.1 2.6h13.1V259h-7.3l4.7-5.7zM218.1 248.2v6.3c-1.4-1-3.1-1.3-4.6-2.2-1.3-.7-1.6-2.1-1.6-3.4v-5.8H209v5.8c0 2 .5 3.9 2.1 5.2 1 .8 2.2 1.3 3.4 1.7 1.1.4 2.2.8 2.9 1.7.6.7.6 1.6.6 2.4v1.8h2.8V248l-2.7.2z"/><path d="M110.7 295.4c-7.1 0-12.8 5.7-12.8 12.8s5.7 12.8 12.8 12.8 12.8-5.7 12.8-12.8-5.7-12.8-12.8-12.8m15.4 12.8c0 8.5-6.9 15.4-15.4 15.4s-15.4-6.9-15.4-15.4 6.9-15.4 15.4-15.4 15.4 6.9 15.4 15.4" style="fill:#fcb131"/><path d="M144 295.4c-7.1 0-12.8 5.7-12.8 12.8S136.9 321 144 321s12.8-5.7 12.8-12.8-5.8-12.8-12.8-12.8m15.3 12.8c0 8.5-6.9 15.4-15.4 15.4s-15.4-6.9-15.4-15.4 6.9-15.4 15.4-15.4 15.4 6.9 15.4 15.4" style="fill:#00a651"/><path d="M94.1 278.7c-8.5 0-15.4 6.9-15.4 15.4s6.9 15.4 15.4 15.4c.4 0 .9 0 1.3-.1 0-.4-.1-.8-.1-1.2 0-.4 0-.9.1-1.3-.4 0-.9.1-1.3.1-7.1 0-12.8-5.7-12.8-12.8s5.7-12.8 12.8-12.8 12.8 5.7 12.8 12.8c0 5.7-3.7 10.5-8.8 12.2-.1.6-.1 1.3-.1 1.9v.8c6.6-1.7 11.5-7.7 11.5-14.9-.1-8.6-6.9-15.5-15.4-15.5" style="fill:#0081c8"/><path d="M160.6 278.7c-8.1 0-14.7 6.2-15.3 14.1.9.1 1.7.2 2.5.4.4-6.7 6-12 12.8-12 7.1 0 12.8 5.7 12.8 12.8s-5.7 12.8-12.8 12.8c-6.4 0-11.7-4.7-12.6-10.9-.8-.3-1.7-.5-2.6-.6.7 7.8 7.3 14 15.3 14 8.5 0 15.4-6.9 15.4-15.4-.1-8.3-7-15.2-15.5-15.2" style="fill:#ee334e"/><path d="M127.3 278.7c-8.1 0-14.7 6.2-15.3 14.1.9.1 1.7.2 2.5.4.4-6.7 6-12 12.8-12 7.1 0 12.8 5.7 12.8 12.8 0 5.7-3.7 10.5-8.8 12.2-.1.6-.1 1.3-.1 1.9v.8c6.6-1.7 11.5-7.7 11.5-14.9 0-8.4-6.9-15.3-15.4-15.3M128.6 308.2c0-.5 0-.9.1-1.3-.4 0-.9.1-1.3.1-6.4 0-11.7-4.7-12.7-10.9-.8-.3-1.7-.5-2.6-.6.7 7.8 7.3 14 15.3 14 .4 0 .9 0 1.3-.1-.1-.4-.1-.8-.1-1.2"/><path d="M127.3 278.7c-8.1 0-14.7 6.2-15.3 14.1.9.1 1.7.2 2.5.4.4-6.7 6-12 12.8-12 7.1 0 12.8 5.7 12.8 12.8 0 5.7-3.7 10.5-8.8 12.2-.1.6-.1 1.3-.1 1.9v.8c6.6-1.7 11.5-7.7 11.5-14.9 0-8.4-6.9-15.3-15.4-15.3"/><linearGradient id="SVGID_00000046320904367327721980000006333537947233295784_" x1="127.2501" x2="127.2501" y1="96.9986" y2="-48.1" gradientTransform="translate(0 48.2)" gradientUnits="userSpaceOnUse"><stop offset="0.02" style="stop-color:#ff721e"/><stop offset="0.0555" style="stop-color:#ff7c1d"/><stop offset="0.1858" style="stop-color:#fe9a18"/><stop offset="0.3136" style="stop-color:#fdb015"/><stop offset="0.4367" style="stop-color:#fdbd14"/><stop offset="0.55" style="stop-color:#fdc113"/><stop offset="0.5507" style="stop-color:#fdc114"/><stop offset="0.5998" style="stop-color:#fdca39"/><stop offset="0.6506" style="stop-color:#fcd157"/><stop offset="0.7042" style="stop-color:#fcd66f"/><stop offset="0.7609" style="stop-color:#fcda80"/><stop offset="0.8228" style="stop-color:#fcdc8a"/><stop offset="0.9" style="stop-color:#fcdd8d"/></linearGradient><path d="M127.3 13.9c-37.8 0-68.4 30.6-68.4 68.4 0 27.7 16.5 50.8 40.2 61.1-20.2-10.9-34-32.8-34-57 0-34.3 27.8-62.2 62.2-62.2 34.3 0 62.2 27.8 62.2 62.2 0 24.2-13.8 46.2-34.1 57 23.7-10.3 40.2-33.4 40.2-61.1.1-37.8-30.5-68.4-68.3-68.4z" style="fill:url(#SVGID_00000046320904367327721980000006333537947233295784_)"/><linearGradient id="SVGID_00000000202323161566674390000015581881767795015053_" x1="127.3" x2="127.3" y1="96.9986" y2="-48.1" gradientTransform="translate(0 48.2)" gradientUnits="userSpaceOnUse"><stop offset="0.02" style="stop-color:#ff721e"/><stop offset="0.0555" style="stop-color:#ff7c1d"/><stop offset="0.1858" style="stop-color:#fe9a18"/><stop offset="0.3136" style="stop-color:#fdb015"/><stop offset="0.4367" style="stop-color:#fdbd14"/><stop offset="0.55" style="stop-color:#fdc113"/><stop offset="0.5507" style="stop-color:#fdc114"/><stop offset="0.5998" style="stop-color:#fdca39"/><stop offset="0.6506" style="stop-color:#fcd157"/><stop offset="0.7042" style="stop-color:#fcd66f"/><stop offset="0.7609" style="stop-color:#fcda80"/><stop offset="0.8228" style="stop-color:#fcdc8a"/><stop offset="0.9" style="stop-color:#fcdd8d"/></linearGradient><path d="M206.6 88.1v-.4l.3-3.6v-.7c.1-1.2.1-2.4.1-3.7 0-44-35.7-79.7-79.7-79.7S47.6 35.7 47.6 79.7c0 1.2 0 2.5.1 3.7v.7l.3 3.6v.4c2 18.7 10.7 34.3 23.6 45.7-12.1-13.8-19.5-32-19.5-51.4 0-41.5 33.6-75.1 75.1-75.1s75.1 33.6 75.1 75.1c0 19.5-7.4 37.6-19.5 51.4 13.1-11.4 21.8-27.1 23.8-45.7z" style="fill:url(#SVGID_00000000202323161566674390000015581881767795015053_)"/><linearGradient id="SVGID_00000097479059872404922740000016652468893460545973_" x1="126.8825" x2="126.8825" y1="96.9" y2="-48.1986" gradientTransform="translate(0 48.2)" gradientUnits="userSpaceOnUse"><stop offset="0.02" style="stop-color:#ff721e"/><stop offset="0.0555" style="stop-color:#ff7c1d"/><stop offset="0.1858" style="stop-color:#fe9a18"/><stop offset="0.3136" style="stop-color:#fdb015"/><stop offset="0.4367" style="stop-color:#fdbd14"/><stop offset="0.55" style="stop-color:#fdc113"/><stop offset="0.5507" style="stop-color:#fdc114"/><stop offset="0.5998" style="stop-color:#fdca39"/><stop offset="0.6506" style="stop-color:#fcd157"/><stop offset="0.7042" style="stop-color:#fcd66f"/><stop offset="0.7609" style="stop-color:#fcda80"/><stop offset="0.8228" style="stop-color:#fcdc8a"/><stop offset="0.9" style="stop-color:#fcdd8d"/></linearGradient><path d="M148.7 120.8c14.6-13.1 13.9-37.4-2.7-49.4-14.5-10.4-21.3-24.2-16.9-39.3-22.4 16.5-30.4 46.3-19.5 71.7-8.3-4-13.9-11.6-15.5-20.1-8.3 17.7-4 38.3 9.4 51.3 6.4 6.2 15.7 10.1 24.6 10.1 8.3 0 16.8-4.2 22.8-9.9 6.8-6.5 11.3-14.9 13-23.9-3.9 4.9-9.4 8.1-15.2 9.5zm-21.4 14.6c-4.8 0-9-2.8-11-6.9 2 0 3-.3 4.4-.8 1.6-.6 4.3-.6 6.6 1.2 2.3-1.9 5-1.8 6.6-1.2 1.3.5 2.4.8 4.4.8-2 4.1-6.1 6.9-11 6.9z" style="fill:url(#SVGID_00000097479059872404922740000016652468893460545973_)"/></svg>